<svg width="18" height="18" viewBox="0 0 18 18" fill="none" xmlns="http://www.w3.org/2000/svg">
<path d="M12.8125 10.1875C13.2267 10.1875 13.5625 9.85172 13.5625 9.4375C13.5625 9.02328 13.2267 8.6875 12.8125 8.6875C12.3983 8.6875 12.0625 9.02328 12.0625 9.4375C12.0625 9.85172 12.3983 10.1875 12.8125 10.1875Z" fill="#3A3A3A"/>
<path d="M12.8125 13.1875C13.2267 13.1875 13.5625 12.8517 13.5625 12.4375C13.5625 12.0233 13.2267 11.6875 12.8125 11.6875C12.3983 11.6875 12.0625 12.0233 12.0625 12.4375C12.0625 12.8517 12.3983 13.1875 12.8125 13.1875Z" fill="#3A3A3A"/>
<path d="M9.8125 9.4375C9.8125 9.85172 9.47672 10.1875 9.0625 10.1875C8.64828 10.1875 8.3125 9.85172 8.3125 9.4375C8.3125 9.02328 8.64828 8.6875 9.0625 8.6875C9.47672 8.6875 9.8125 9.02328 9.8125 9.4375Z" fill="#3A3A3A"/>
<path d="M9.8125 12.4375C9.8125 12.8517 9.47672 13.1875 9.0625 13.1875C8.64828 13.1875 8.3125 12.8517 8.3125 12.4375C8.3125 12.0233 8.64828 11.6875 9.0625 11.6875C9.47672 11.6875 9.8125 12.0233 9.8125 12.4375Z" fill="#3A3A3A"/>
<path d="M5.3125 10.1875C5.72672 10.1875 6.0625 9.85172 6.0625 9.4375C6.0625 9.02328 5.72672 8.6875 5.3125 8.6875C4.89829 8.6875 4.5625 9.02328 4.5625 9.4375C4.5625 9.85172 4.89829 10.1875 5.3125 10.1875Z" fill="#3A3A3A"/>
<path d="M5.3125 13.1875C5.72672 13.1875 6.0625 12.8517 6.0625 12.4375C6.0625 12.0233 5.72672 11.6875 5.3125 11.6875C4.89829 11.6875 4.5625 12.0233 4.5625 12.4375C4.5625 12.8517 4.89829 13.1875 5.3125 13.1875Z" fill="#3A3A3A"/>
<path fill-rule="evenodd" clip-rule="evenodd" d="M5.3125 1C5.62316 1 5.875 1.25184 5.875 1.5625V2.13454C6.3715 2.12499 6.9185 2.12499 7.5201 2.125H10.6048C11.2065 2.12499 11.7535 2.12499 12.25 2.13454V1.5625C12.25 1.25184 12.5019 1 12.8125 1C13.1231 1 13.375 1.25184 13.375 1.5625V2.18282C13.5699 2.19768 13.7546 2.21637 13.9293 2.23985C14.8085 2.35807 15.5203 2.60716 16.0816 3.16843C16.6428 3.72971 16.8919 4.44141 17.0102 5.32073C17.125 6.17514 17.125 7.26685 17.125 8.64512V10.2298C17.125 11.6081 17.125 12.6999 17.0102 13.5543C16.8919 14.4335 16.6428 15.1453 16.0816 15.7066C15.5203 16.2678 14.8085 16.5169 13.9293 16.6352C13.0749 16.75 11.9832 16.75 10.6049 16.75H7.52019C6.14189 16.75 5.05014 16.75 4.19574 16.6352C3.31642 16.5169 2.60471 16.2678 2.04343 15.7066C1.48216 15.1453 1.23307 14.4335 1.11486 13.5543C0.999978 12.6999 0.999985 11.6082 1 10.2298V8.6452C0.999985 7.26685 0.999978 6.17514 1.11486 5.32073C1.23307 4.44141 1.48216 3.72971 2.04343 3.16843C2.60471 2.60716 3.31642 2.35807 4.19574 2.23985C4.37043 2.21637 4.55505 2.19768 4.75 2.18282V1.5625C4.75 1.25184 5.00184 1 5.3125 1ZM4.34564 3.35482C3.59107 3.45626 3.15633 3.64652 2.83893 3.96392C2.52152 4.28133 2.33127 4.71607 2.22982 5.47064C2.21264 5.59842 2.19828 5.73296 2.18626 5.875H15.9387C15.9267 5.73296 15.9123 5.59843 15.8952 5.47064C15.7938 4.71607 15.6035 4.28133 15.2861 3.96392C14.9687 3.64652 14.5339 3.45626 13.7794 3.35482C13.0086 3.25119 11.9926 3.25 10.5625 3.25H7.5625C6.13238 3.25 5.11638 3.25119 4.34564 3.35482ZM2.125 8.6875C2.125 8.047 2.12524 7.48952 2.13482 7H15.9902C15.9998 7.48952 16 8.047 16 8.6875V10.1875C16 11.6176 15.9988 12.6336 15.8952 13.4044C15.7938 14.1589 15.6035 14.5937 15.2861 14.9111C14.9687 15.2285 14.5339 15.4188 13.7794 15.5202C13.0086 15.6238 11.9926 15.625 10.5625 15.625H7.5625C6.13238 15.625 5.11638 15.6238 4.34564 15.5202C3.59107 15.4188 3.15633 15.2285 2.83893 14.9111C2.52152 14.5937 2.33127 14.1589 2.22982 13.4044C2.12619 12.6336 2.125 11.6176 2.125 10.1875V8.6875Z" fill="#3A3A3A"/>
</svg>
