<svg width="44" height="30" viewBox="0 0 44 30" fill="none" xmlns="http://www.w3.org/2000/svg">
<path d="M2 13C0.89543 13 0 13.8954 0 15C0 16.1046 0.89543 17 2 17V13ZM43.4142 16.4142C44.1953 15.6332 44.1953 14.3668 43.4142 13.5858L30.6863 0.857864C29.9052 0.0768156 28.6389 0.0768156 27.8579 0.857864C27.0768 1.63891 27.0768 2.90524 27.8579 3.68629L39.1716 15L27.8579 26.3137C27.0768 27.0948 27.0768 28.3611 27.8579 29.1421C28.6389 29.9232 29.9052 29.9232 30.6863 29.1421L43.4142 16.4142ZM2 17H42V13H2V17Z" fill="#F58633"/>
</svg>
