<svg width="1920" height="871" viewBox="0 0 1920 871" fill="none" xmlns="http://www.w3.org/2000/svg">
<path d="M0 0H1920V458.5C1886 402 308 1137 0 764.5V0Z" fill="#F58633"/>
<circle cx="28.5" cy="212.5" r="12.5" fill="#FFEAB5"/>
<circle cx="28.5" cy="245.5" r="12.5" fill="#FFEAB5"/>
<circle cx="28.5" cy="278.5" r="12.5" fill="#FFEAB5"/>
<circle cx="28.5" cy="311.5" r="12.5" fill="#FFEAB5"/>
<circle cx="28.5" cy="344.5" r="12.5" fill="#FFEAB5"/>
<circle cx="28.5" cy="377.5" r="12.5" fill="#FFEAB5"/>
<circle cx="28.5" cy="410.5" r="12.5" fill="#FFEAB5"/>
<circle cx="61.5" cy="212.5" r="12.5" fill="#FFEAB5"/>
<circle cx="61.5" cy="245.5" r="12.5" fill="#FFEAB5"/>
<circle cx="61.5" cy="278.5" r="12.5" fill="#FFEAB5"/>
<circle cx="61.5" cy="311.5" r="12.5" fill="#FFEAB5"/>
<circle cx="61.5" cy="344.5" r="12.5" fill="#FFEAB5"/>
<circle cx="61.5" cy="377.5" r="12.5" fill="#FFEAB5"/>
<circle cx="61.5" cy="410.5" r="12.5" fill="#FFEAB5"/>
<circle cx="94.5" cy="212.5" r="12.5" fill="#FFEAB5"/>
<circle cx="94.5" cy="245.5" r="12.5" fill="#FFEAB5"/>
<circle cx="94.5" cy="278.5" r="12.5" fill="#FFEAB5"/>
<circle cx="94.5" cy="311.5" r="12.5" fill="#FFEAB5"/>
<circle cx="94.5" cy="344.5" r="12.5" fill="#FFEAB5"/>
<circle cx="94.5" cy="377.5" r="12.5" fill="#FFEAB5"/>
<circle cx="94.5" cy="410.5" r="12.5" fill="#FFEAB5"/>
<path d="M1785.77 280.135C1785.77 288.217 1779.22 294.769 1771.13 294.769C1763.05 294.769 1756.5 288.217 1756.5 280.135C1756.5 272.052 1763.05 265.5 1771.13 265.5C1779.22 265.5 1785.77 272.052 1785.77 280.135Z" stroke="#FFEAB5"/>
<path d="M1785.77 320.09C1785.77 328.172 1779.22 334.724 1771.13 334.724C1763.05 334.724 1756.5 328.172 1756.5 320.09C1756.5 312.007 1763.05 305.455 1771.13 305.455C1779.22 305.455 1785.77 312.007 1785.77 320.09Z" stroke="#FFEAB5"/>
<path d="M1785.77 360.045C1785.77 368.127 1779.22 374.679 1771.13 374.679C1763.05 374.679 1756.5 368.127 1756.5 360.045C1756.5 351.962 1763.05 345.41 1771.13 345.41C1779.22 345.41 1785.77 351.962 1785.77 360.045Z" stroke="#FFEAB5"/>
<path d="M1785.77 400C1785.77 408.082 1779.22 414.635 1771.13 414.635C1763.05 414.635 1756.5 408.082 1756.5 400C1756.5 391.918 1763.05 385.365 1771.13 385.365C1779.22 385.365 1785.77 391.918 1785.77 400Z" stroke="#FFEAB5"/>
<path d="M1785.77 439.955C1785.77 448.038 1779.22 454.59 1771.13 454.59C1763.05 454.59 1756.5 448.038 1756.5 439.955C1756.5 431.873 1763.05 425.321 1771.13 425.321C1779.22 425.321 1785.77 431.873 1785.77 439.955Z" stroke="#FFEAB5"/>
<path d="M1785.77 479.91C1785.77 487.993 1779.22 494.545 1771.13 494.545C1763.05 494.545 1756.5 487.993 1756.5 479.91C1756.5 471.828 1763.05 465.276 1771.13 465.276C1779.22 465.276 1785.77 471.828 1785.77 479.91Z" stroke="#FFEAB5"/>
<path d="M1785.77 519.865C1785.77 527.948 1779.22 534.5 1771.13 534.5C1763.05 534.5 1756.5 527.948 1756.5 519.865C1756.5 511.783 1763.05 505.231 1771.13 505.231C1779.22 505.231 1785.77 511.783 1785.77 519.865Z" stroke="#FFEAB5"/>
<path d="M1825.72 280.135C1825.72 288.217 1819.17 294.769 1811.09 294.769C1803.01 294.769 1796.46 288.217 1796.46 280.135C1796.46 272.052 1803.01 265.5 1811.09 265.5C1819.17 265.5 1825.72 272.052 1825.72 280.135Z" stroke="#FFEAB5"/>
<path d="M1825.72 320.09C1825.72 328.172 1819.17 334.724 1811.09 334.724C1803.01 334.724 1796.46 328.172 1796.46 320.09C1796.46 312.007 1803.01 305.455 1811.09 305.455C1819.17 305.455 1825.72 312.007 1825.72 320.09Z" stroke="#FFEAB5"/>
<path d="M1825.72 360.045C1825.72 368.127 1819.17 374.679 1811.09 374.679C1803.01 374.679 1796.46 368.127 1796.46 360.045C1796.46 351.962 1803.01 345.41 1811.09 345.41C1819.17 345.41 1825.72 351.962 1825.72 360.045Z" stroke="#FFEAB5"/>
<path d="M1825.72 400C1825.72 408.082 1819.17 414.635 1811.09 414.635C1803.01 414.635 1796.46 408.082 1796.46 400C1796.46 391.918 1803.01 385.365 1811.09 385.365C1819.17 385.365 1825.72 391.918 1825.72 400Z" stroke="#FFEAB5"/>
<path d="M1825.72 439.955C1825.72 448.038 1819.17 454.59 1811.09 454.59C1803.01 454.59 1796.46 448.038 1796.46 439.955C1796.46 431.873 1803.01 425.321 1811.09 425.321C1819.17 425.321 1825.72 431.873 1825.72 439.955Z" stroke="#FFEAB5"/>
<path d="M1825.72 479.91C1825.72 487.993 1819.17 494.545 1811.09 494.545C1803.01 494.545 1796.46 487.993 1796.46 479.91C1796.46 471.828 1803.01 465.276 1811.09 465.276C1819.17 465.276 1825.72 471.828 1825.72 479.91Z" stroke="#FFEAB5"/>
<path d="M1825.72 519.865C1825.72 527.948 1819.17 534.5 1811.09 534.5C1803.01 534.5 1796.46 527.948 1796.46 519.865C1796.46 511.783 1803.01 505.231 1811.09 505.231C1819.17 505.231 1825.72 511.783 1825.72 519.865Z" stroke="#FFEAB5"/>
<path d="M1865.68 280.135C1865.68 288.217 1859.13 294.769 1851.05 294.769C1842.96 294.769 1836.41 288.217 1836.41 280.135C1836.41 272.052 1842.96 265.5 1851.05 265.5C1859.13 265.5 1865.68 272.052 1865.68 280.135Z" stroke="#FFEAB5"/>
<path d="M1865.68 320.09C1865.68 328.172 1859.13 334.724 1851.05 334.724C1842.96 334.724 1836.41 328.172 1836.41 320.09C1836.41 312.007 1842.96 305.455 1851.05 305.455C1859.13 305.455 1865.68 312.007 1865.68 320.09Z" stroke="#FFEAB5"/>
<path d="M1865.68 360.045C1865.68 368.127 1859.13 374.679 1851.05 374.679C1842.96 374.679 1836.41 368.127 1836.41 360.045C1836.41 351.962 1842.96 345.41 1851.05 345.41C1859.13 345.41 1865.68 351.962 1865.68 360.045Z" stroke="#FFEAB5"/>
<path d="M1865.68 400C1865.68 408.082 1859.13 414.635 1851.05 414.635C1842.96 414.635 1836.41 408.082 1836.41 400C1836.41 391.918 1842.96 385.365 1851.05 385.365C1859.13 385.365 1865.68 391.918 1865.68 400Z" stroke="#FFEAB5"/>
<path d="M1865.68 439.955C1865.68 448.038 1859.13 454.59 1851.05 454.59C1842.96 454.59 1836.41 448.038 1836.41 439.955C1836.41 431.873 1842.96 425.321 1851.05 425.321C1859.13 425.321 1865.68 431.873 1865.68 439.955Z" stroke="#FFEAB5"/>
<path d="M1865.68 479.91C1865.68 487.993 1859.13 494.545 1851.05 494.545C1842.96 494.545 1836.41 487.993 1836.41 479.91C1836.41 471.828 1842.96 465.276 1851.05 465.276C1859.13 465.276 1865.68 471.828 1865.68 479.91Z" stroke="#FFEAB5"/>
<path d="M1865.68 519.865C1865.68 527.948 1859.13 534.5 1851.05 534.5C1842.96 534.5 1836.41 527.948 1836.41 519.865C1836.41 511.783 1842.96 505.231 1851.05 505.231C1859.13 505.231 1865.68 511.783 1865.68 519.865Z" stroke="#FFEAB5"/>
<path d="M1905.63 280.135C1905.63 288.217 1899.08 294.769 1891 294.769C1882.92 294.769 1876.37 288.217 1876.37 280.135C1876.37 272.052 1882.92 265.5 1891 265.5C1899.08 265.5 1905.63 272.052 1905.63 280.135Z" stroke="#FFEAB5"/>
<path d="M1905.63 320.09C1905.63 328.172 1899.08 334.724 1891 334.724C1882.92 334.724 1876.37 328.172 1876.37 320.09C1876.37 312.007 1882.92 305.455 1891 305.455C1899.08 305.455 1905.63 312.007 1905.63 320.09Z" stroke="#FFEAB5"/>
<path d="M1905.63 360.045C1905.63 368.127 1899.08 374.679 1891 374.679C1882.92 374.679 1876.37 368.127 1876.37 360.045C1876.37 351.962 1882.92 345.41 1891 345.41C1899.08 345.41 1905.63 351.962 1905.63 360.045Z" stroke="#FFEAB5"/>
<path d="M1905.63 400C1905.63 408.082 1899.08 414.635 1891 414.635C1882.92 414.635 1876.37 408.082 1876.37 400C1876.37 391.918 1882.92 385.365 1891 385.365C1899.08 385.365 1905.63 391.918 1905.63 400Z" stroke="#FFEAB5"/>
<path d="M1905.63 439.955C1905.63 448.038 1899.08 454.59 1891 454.59C1882.92 454.59 1876.37 448.038 1876.37 439.955C1876.37 431.873 1882.92 425.321 1891 425.321C1899.08 425.321 1905.63 431.873 1905.63 439.955Z" stroke="#FFEAB5"/>
<path d="M1905.63 479.91C1905.63 487.993 1899.08 494.545 1891 494.545C1882.92 494.545 1876.37 487.993 1876.37 479.91C1876.37 471.828 1882.92 465.276 1891 465.276C1899.08 465.276 1905.63 471.828 1905.63 479.91Z" stroke="#FFEAB5"/>
<path d="M1905.63 519.865C1905.63 527.948 1899.08 534.5 1891 534.5C1882.92 534.5 1876.37 527.948 1876.37 519.865C1876.37 511.783 1882.92 505.231 1891 505.231C1899.08 505.231 1905.63 511.783 1905.63 519.865Z" stroke="#FFEAB5"/>
</svg>
