<svg width="1920" height="242" viewBox="0 0 1920 242" fill="none" xmlns="http://www.w3.org/2000/svg">
<path d="M0 0H1920V201.492C1886 186.601 308 299.669 0 201.492V0Z" fill="#FAD77D"/>
<circle cx="16.5" cy="4.5" r="12.5" fill="#FFEAB5"/>
<circle cx="16.5" cy="37.5" r="12.5" fill="#FFEAB5"/>
<circle cx="16.5" cy="70.5" r="12.5" fill="#FFEAB5"/>
<circle cx="16.5" cy="103.5" r="12.5" fill="#FFEAB5"/>
<circle cx="16.5" cy="136.5" r="12.5" fill="#FFEAB5"/>
<circle cx="16.5" cy="169.5" r="12.5" fill="#FFEAB5"/>
<circle cx="49.5" cy="4.5" r="12.5" fill="#FFEAB5"/>
<circle cx="49.5" cy="37.5" r="12.5" fill="#FFEAB5"/>
<circle cx="49.5" cy="70.5" r="12.5" fill="#FFEAB5"/>
<circle cx="49.5" cy="103.5" r="12.5" fill="#FFEAB5"/>
<circle cx="49.5" cy="136.5" r="12.5" fill="#FFEAB5"/>
<circle cx="49.5" cy="169.5" r="12.5" fill="#FFEAB5"/>
<circle cx="82.5" cy="4.5" r="12.5" fill="#FFEAB5"/>
<circle cx="82.5" cy="37.5" r="12.5" fill="#FFEAB5"/>
<circle cx="82.5" cy="70.5" r="12.5" fill="#FFEAB5"/>
<circle cx="82.5" cy="103.5" r="12.5" fill="#FFEAB5"/>
<circle cx="82.5" cy="136.5" r="12.5" fill="#FFEAB5"/>
<circle cx="82.5" cy="169.5" r="12.5" fill="#FFEAB5"/>
<path d="M1799.77 -12.9552C1799.77 -4.87276 1793.22 1.67934 1785.13 1.67934C1777.05 1.67934 1770.5 -4.87276 1770.5 -12.9552C1770.5 -21.0376 1777.05 -27.5897 1785.13 -27.5897C1793.22 -27.5897 1799.77 -21.0376 1799.77 -12.9552Z" stroke="#FFEAB5"/>
<path d="M1799.77 27C1799.77 35.0824 1793.22 41.6345 1785.13 41.6345C1777.05 41.6345 1770.5 35.0824 1770.5 27C1770.5 18.9176 1777.05 12.3655 1785.13 12.3655C1793.22 12.3655 1799.77 18.9176 1799.77 27Z" stroke="#FFEAB5"/>
<path d="M1799.77 66.9551C1799.77 75.0375 1793.22 81.5896 1785.13 81.5896C1777.05 81.5896 1770.5 75.0375 1770.5 66.9551C1770.5 58.8727 1777.05 52.3206 1785.13 52.3206C1793.22 52.3206 1799.77 58.8727 1799.77 66.9551Z" stroke="#FFEAB5"/>
<path d="M1799.77 106.91C1799.77 114.993 1793.22 121.545 1785.13 121.545C1777.05 121.545 1770.5 114.993 1770.5 106.91C1770.5 98.8279 1777.05 92.2758 1785.13 92.2758C1793.22 92.2758 1799.77 98.8279 1799.77 106.91Z" stroke="#FFEAB5"/>
<path d="M1799.77 146.865C1799.77 154.948 1793.22 161.5 1785.13 161.5C1777.05 161.5 1770.5 154.948 1770.5 146.865C1770.5 138.783 1777.05 132.231 1785.13 132.231C1793.22 132.231 1799.77 138.783 1799.77 146.865Z" stroke="#FFEAB5"/>
<path d="M1839.72 -12.9552C1839.72 -4.87276 1833.17 1.67934 1825.09 1.67934C1817.01 1.67934 1810.46 -4.87276 1810.46 -12.9552C1810.46 -21.0376 1817.01 -27.5897 1825.09 -27.5897C1833.17 -27.5897 1839.72 -21.0376 1839.72 -12.9552Z" stroke="#FFEAB5"/>
<path d="M1839.72 27C1839.72 35.0824 1833.17 41.6345 1825.09 41.6345C1817.01 41.6345 1810.46 35.0824 1810.46 27C1810.46 18.9176 1817.01 12.3655 1825.09 12.3655C1833.17 12.3655 1839.72 18.9176 1839.72 27Z" stroke="#FFEAB5"/>
<path d="M1839.72 66.9551C1839.72 75.0375 1833.17 81.5896 1825.09 81.5896C1817.01 81.5896 1810.46 75.0375 1810.46 66.9551C1810.46 58.8727 1817.01 52.3206 1825.09 52.3206C1833.17 52.3206 1839.72 58.8727 1839.72 66.9551Z" stroke="#FFEAB5"/>
<path d="M1839.72 106.91C1839.72 114.993 1833.17 121.545 1825.09 121.545C1817.01 121.545 1810.46 114.993 1810.46 106.91C1810.46 98.8279 1817.01 92.2758 1825.09 92.2758C1833.17 92.2758 1839.72 98.8279 1839.72 106.91Z" stroke="#FFEAB5"/>
<path d="M1839.72 146.865C1839.72 154.948 1833.17 161.5 1825.09 161.5C1817.01 161.5 1810.46 154.948 1810.46 146.865C1810.46 138.783 1817.01 132.231 1825.09 132.231C1833.17 132.231 1839.72 138.783 1839.72 146.865Z" stroke="#FFEAB5"/>
<path d="M1879.68 -12.9552C1879.68 -4.87276 1873.13 1.67934 1865.05 1.67934C1856.96 1.67934 1850.41 -4.87276 1850.41 -12.9552C1850.41 -21.0376 1856.96 -27.5897 1865.05 -27.5897C1873.13 -27.5897 1879.68 -21.0376 1879.68 -12.9552Z" stroke="#FFEAB5"/>
<path d="M1879.68 27C1879.68 35.0824 1873.13 41.6345 1865.05 41.6345C1856.96 41.6345 1850.41 35.0824 1850.41 27C1850.41 18.9176 1856.96 12.3655 1865.05 12.3655C1873.13 12.3655 1879.68 18.9176 1879.68 27Z" stroke="#FFEAB5"/>
<path d="M1879.68 66.9551C1879.68 75.0375 1873.13 81.5896 1865.05 81.5896C1856.96 81.5896 1850.41 75.0375 1850.41 66.9551C1850.41 58.8727 1856.96 52.3206 1865.05 52.3206C1873.13 52.3206 1879.68 58.8727 1879.68 66.9551Z" stroke="#FFEAB5"/>
<path d="M1879.68 106.91C1879.68 114.993 1873.13 121.545 1865.05 121.545C1856.96 121.545 1850.41 114.993 1850.41 106.91C1850.41 98.8279 1856.96 92.2758 1865.05 92.2758C1873.13 92.2758 1879.68 98.8279 1879.68 106.91Z" stroke="#FFEAB5"/>
<path d="M1879.68 146.865C1879.68 154.948 1873.13 161.5 1865.05 161.5C1856.96 161.5 1850.41 154.948 1850.41 146.865C1850.41 138.783 1856.96 132.231 1865.05 132.231C1873.13 132.231 1879.68 138.783 1879.68 146.865Z" stroke="#FFEAB5"/>
<path d="M1919.63 -12.9552C1919.63 -4.87276 1913.08 1.67934 1905 1.67934C1896.92 1.67934 1890.37 -4.87276 1890.37 -12.9552C1890.37 -21.0376 1896.92 -27.5897 1905 -27.5897C1913.08 -27.5897 1919.63 -21.0376 1919.63 -12.9552Z" stroke="#FFEAB5"/>
<path d="M1919.63 27C1919.63 35.0824 1913.08 41.6345 1905 41.6345C1896.92 41.6345 1890.37 35.0824 1890.37 27C1890.37 18.9176 1896.92 12.3655 1905 12.3655C1913.08 12.3655 1919.63 18.9176 1919.63 27Z" stroke="#FFEAB5"/>
<path d="M1919.63 66.9551C1919.63 75.0375 1913.08 81.5896 1905 81.5896C1896.92 81.5896 1890.37 75.0375 1890.37 66.9551C1890.37 58.8727 1896.92 52.3206 1905 52.3206C1913.08 52.3206 1919.63 58.8727 1919.63 66.9551Z" stroke="#FFEAB5"/>
<path d="M1919.63 106.91C1919.63 114.993 1913.08 121.545 1905 121.545C1896.92 121.545 1890.37 114.993 1890.37 106.91C1890.37 98.8279 1896.92 92.2758 1905 92.2758C1913.08 92.2758 1919.63 98.8279 1919.63 106.91Z" stroke="#FFEAB5"/>
<path d="M1919.63 146.865C1919.63 154.948 1913.08 161.5 1905 161.5C1896.92 161.5 1890.37 154.948 1890.37 146.865C1890.37 138.783 1896.92 132.231 1905 132.231C1913.08 132.231 1919.63 138.783 1919.63 146.865Z" stroke="#FFEAB5"/>
</svg>
