<svg width="91" height="62" viewBox="0 0 91 62" fill="none" xmlns="http://www.w3.org/2000/svg">
<g clip-path="url(#clip0_584_788)">
<path d="M-103.823 -45.5505C-103.823 -45.1462 -103.943 -44.751 -104.167 -44.4149C-104.392 -44.0788 -104.712 -43.817 -105.085 -43.6625C-105.459 -43.508 -105.87 -43.4679 -106.266 -43.5471C-106.663 -43.6264 -107.027 -43.8215 -107.312 -44.1077C-107.598 -44.394 -107.792 -44.7585 -107.87 -45.1551C-107.948 -45.5517 -107.907 -45.9627 -107.752 -46.3359C-107.596 -46.7091 -107.334 -47.0278 -106.997 -47.2517C-106.66 -47.4755 -106.265 -47.5944 -105.861 -47.5934C-105.32 -47.592 -104.801 -47.3762 -104.419 -46.9932C-104.037 -46.6102 -103.823 -46.0914 -103.823 -45.5505ZM-84.2502 -47.5934C-84.6544 -47.5944 -85.0499 -47.4755 -85.3866 -47.2517C-85.7232 -47.0278 -85.9859 -46.7091 -86.1413 -46.3359C-86.2968 -45.9627 -86.338 -45.5517 -86.2597 -45.1551C-86.1815 -44.7585 -85.9873 -44.394 -85.7018 -44.1077C-85.4163 -43.8215 -85.0523 -43.6264 -84.6559 -43.5471C-84.2594 -43.4679 -83.8484 -43.508 -83.4748 -43.6625C-83.1012 -43.817 -82.7818 -44.0788 -82.5571 -44.4149C-82.3324 -44.751 -82.2124 -45.1462 -82.2124 -45.5505C-82.2124 -46.0914 -82.427 -46.6102 -82.809 -46.9932C-83.191 -47.3762 -83.7092 -47.592 -84.2502 -47.5934ZM-62.645 -47.5934C-63.0491 -47.5934 -63.4441 -47.4736 -63.78 -47.2491C-64.116 -47.0246 -64.3778 -46.7056 -64.5325 -46.3323C-64.6871 -45.959 -64.7276 -45.5482 -64.6487 -45.1519C-64.5699 -44.7556 -64.3753 -44.3916 -64.0896 -44.1059C-63.8039 -43.8202 -63.4399 -43.6256 -63.0436 -43.5468C-62.6473 -43.4679 -62.2365 -43.5084 -61.8632 -43.663C-61.4899 -43.8176 -61.1709 -44.0795 -60.9464 -44.4155C-60.7219 -44.7514 -60.6021 -45.1464 -60.6021 -45.5505C-60.6021 -46.0923 -60.8173 -46.6119 -61.2004 -46.995C-61.5836 -47.3782 -62.1032 -47.5934 -62.645 -47.5934ZM-41.0242 -47.5934C-41.4283 -47.5934 -41.8233 -47.4736 -42.1592 -47.2491C-42.4952 -47.0246 -42.757 -46.7056 -42.9117 -46.3323C-43.0663 -45.959 -43.1068 -45.5482 -43.0279 -45.1519C-42.9491 -44.7556 -42.7545 -44.3916 -42.4688 -44.1059C-42.1831 -43.8202 -41.8191 -43.6256 -41.4228 -43.5468C-41.0265 -43.4679 -40.6157 -43.5084 -40.2424 -43.663C-39.8691 -43.8176 -39.5501 -44.0795 -39.3256 -44.4155C-39.1011 -44.7514 -38.9813 -45.1464 -38.9813 -45.5505C-38.9813 -46.0923 -39.1965 -46.6119 -39.5797 -46.995C-39.9628 -47.3782 -40.4824 -47.5934 -41.0242 -47.5934ZM-19.4139 -47.5934C-19.8179 -47.5934 -20.2129 -47.4736 -20.5489 -47.2491C-20.8849 -47.0246 -21.1467 -46.7056 -21.3013 -46.3323C-21.4559 -45.959 -21.4964 -45.5482 -21.4176 -45.1519C-21.3388 -44.7556 -21.1442 -44.3916 -20.8585 -44.1059C-20.5728 -43.8202 -20.2087 -43.6256 -19.8124 -43.5468C-19.4161 -43.4679 -19.0054 -43.5084 -18.6321 -43.663C-18.2588 -43.8176 -17.9397 -44.0795 -17.7152 -44.4155C-17.4907 -44.7514 -17.3709 -45.1464 -17.3709 -45.5505C-17.3709 -45.8196 -17.4241 -46.0861 -17.5274 -46.3347C-17.6308 -46.5832 -17.7822 -46.8089 -17.973 -46.9987C-18.1638 -47.1886 -18.3902 -47.3389 -18.6393 -47.4409C-18.8884 -47.543 -19.1552 -47.5948 -19.4243 -47.5934H-19.4139ZM2.18602 -47.5934C1.78174 -47.5944 1.38625 -47.4755 1.0496 -47.2517C0.712952 -47.0278 0.450284 -46.7091 0.294856 -46.3359C0.139428 -45.9627 0.0982258 -45.5517 0.176462 -45.1551C0.254699 -44.7585 0.44886 -44.394 0.734363 -44.1077C1.01987 -43.8215 1.38387 -43.6264 1.78031 -43.5471C2.17674 -43.4679 2.58778 -43.508 2.96139 -43.6625C3.33499 -43.817 3.65436 -44.0788 3.87908 -44.4149C4.10379 -44.751 4.22375 -45.1462 4.22375 -45.5505C4.22375 -46.0914 4.00923 -46.6102 3.62723 -46.9932C3.24523 -47.3762 2.72694 -47.592 2.18602 -47.5934ZM23.7964 -47.5934C23.393 -47.5903 22.9996 -47.4679 22.6657 -47.2415C22.3318 -47.0152 22.0724 -46.695 21.9201 -46.3215C21.7679 -45.9479 21.7297 -45.5376 21.8103 -45.1424C21.8909 -44.7471 22.0867 -44.3846 22.373 -44.1004C22.6593 -43.8163 23.0234 -43.6233 23.4192 -43.5457C23.8151 -43.4681 24.225 -43.5095 24.5974 -43.6646C24.9698 -43.8196 25.288 -44.0815 25.5118 -44.4171C25.7356 -44.7527 25.855 -45.1471 25.855 -45.5505C25.855 -45.8201 25.8016 -46.087 25.698 -46.3359C25.5944 -46.5848 25.4425 -46.8107 25.2511 -47.0006C25.0597 -47.1905 24.8327 -47.3407 24.583 -47.4424C24.3333 -47.5442 24.066 -47.5955 23.7964 -47.5934ZM45.4015 -47.5934C44.9975 -47.5934 44.6025 -47.4736 44.2665 -47.2491C43.9305 -47.0246 43.6687 -46.7056 43.5141 -46.3323C43.3594 -45.959 43.319 -45.5482 43.3978 -45.1519C43.4766 -44.7556 43.6712 -44.3916 43.9569 -44.1059C44.2426 -43.8202 44.6066 -43.6256 45.0029 -43.5468C45.3992 -43.4679 45.81 -43.5084 46.1833 -43.663C46.5566 -43.8176 46.8757 -44.0795 47.1002 -44.4155C47.3246 -44.7514 47.4445 -45.1464 47.4445 -45.5505C47.4445 -46.0923 47.2292 -46.6119 46.8461 -46.995C46.463 -47.3782 45.9433 -47.5934 45.4015 -47.5934ZM67.0119 -47.5934C66.6078 -47.5934 66.2128 -47.4736 65.8769 -47.2491C65.5409 -47.0246 65.279 -46.7056 65.1244 -46.3323C64.9698 -45.959 64.9293 -45.5482 65.0082 -45.1519C65.087 -44.7556 65.2816 -44.3916 65.5673 -44.1059C65.853 -43.8202 66.217 -43.6256 66.6133 -43.5468C67.0096 -43.4679 67.4204 -43.5084 67.7937 -43.663C68.167 -43.8176 68.486 -44.0795 68.7105 -44.4155C68.935 -44.7514 69.0548 -45.1464 69.0548 -45.5505C69.0548 -45.8187 69.002 -46.0844 68.8993 -46.3323C68.7966 -46.5801 68.6462 -46.8053 68.4564 -46.995C68.2667 -47.1847 68.0415 -47.3352 67.7937 -47.4379C67.5458 -47.5406 67.2801 -47.5934 67.0119 -47.5934ZM88.6222 -43.5127C89.0265 -43.5127 89.4217 -43.6327 89.7578 -43.8574C90.0938 -44.0821 90.3557 -44.4015 90.5101 -44.7751C90.6646 -45.1487 90.7048 -45.5597 90.6255 -45.9562C90.5463 -46.3526 90.3512 -46.7166 90.0649 -47.0021C89.7787 -47.2876 89.4142 -47.4818 89.0176 -47.56C88.6209 -47.6382 88.21 -47.597 87.8368 -47.4416C87.4636 -47.2862 87.1449 -47.0235 86.921 -46.6869C86.6972 -46.3502 86.5782 -45.9547 86.5793 -45.5505C86.5806 -45.0095 86.7965 -44.4912 87.1795 -44.1092C87.5625 -43.7272 88.0813 -43.5127 88.6222 -43.5127ZM-105.861 -26.6936C-106.265 -26.6947 -106.66 -26.5757 -106.997 -26.3519C-107.334 -26.128 -107.596 -25.8093 -107.752 -25.4361C-107.907 -25.0629 -107.948 -24.652 -107.87 -24.2553C-107.792 -23.8587 -107.598 -23.4942 -107.312 -23.208C-107.027 -22.9217 -106.663 -22.7266 -106.266 -22.6474C-105.87 -22.5681 -105.459 -22.6083 -105.085 -22.7628C-104.712 -22.9172 -104.392 -23.1791 -104.167 -23.5151C-103.943 -23.8512 -103.823 -24.2464 -103.823 -24.6507C-103.823 -25.1916 -104.037 -25.7105 -104.419 -26.0934C-104.801 -26.4764 -105.32 -26.6923 -105.861 -26.6936ZM-84.2502 -26.6936C-84.6544 -26.6947 -85.0499 -26.5757 -85.3866 -26.3519C-85.7232 -26.128 -85.9859 -25.8093 -86.1413 -25.4361C-86.2968 -25.0629 -86.338 -24.652 -86.2597 -24.2553C-86.1815 -23.8587 -85.9873 -23.4942 -85.7018 -23.208C-85.4163 -22.9217 -85.0523 -22.7266 -84.6559 -22.6474C-84.2594 -22.5681 -83.8484 -22.6083 -83.4748 -22.7628C-83.1012 -22.9172 -82.7818 -23.1791 -82.5571 -23.5151C-82.3324 -23.8512 -82.2124 -24.2464 -82.2124 -24.6507C-82.2124 -25.1916 -82.427 -25.7105 -82.809 -26.0934C-83.191 -26.4764 -83.7092 -26.6923 -84.2502 -26.6936ZM-62.645 -26.6936C-63.0491 -26.6936 -63.4441 -26.5738 -63.78 -26.3493C-64.116 -26.1249 -64.3778 -25.8058 -64.5325 -25.4325C-64.6871 -25.0592 -64.7276 -24.6484 -64.6487 -24.2521C-64.5699 -23.8558 -64.3753 -23.4918 -64.0896 -23.2061C-63.8039 -22.9204 -63.4399 -22.7258 -63.0436 -22.647C-62.6473 -22.5682 -62.2365 -22.6086 -61.8632 -22.7633C-61.4899 -22.9179 -61.1709 -23.1797 -60.9464 -23.5157C-60.7219 -23.8517 -60.6021 -24.2466 -60.6021 -24.6507C-60.6021 -25.1925 -60.8173 -25.7122 -61.2004 -26.0953C-61.5836 -26.4784 -62.1032 -26.6936 -62.645 -26.6936ZM-41.0242 -26.6936C-41.4283 -26.6936 -41.8233 -26.5738 -42.1592 -26.3493C-42.4952 -26.1249 -42.757 -25.8058 -42.9117 -25.4325C-43.0663 -25.0592 -43.1068 -24.6484 -43.0279 -24.2521C-42.9491 -23.8558 -42.7545 -23.4918 -42.4688 -23.2061C-42.1831 -22.9204 -41.8191 -22.7258 -41.4228 -22.647C-41.0265 -22.5682 -40.6157 -22.6086 -40.2424 -22.7633C-39.8691 -22.9179 -39.5501 -23.1797 -39.3256 -23.5157C-39.1011 -23.8517 -38.9813 -24.2466 -38.9813 -24.6507C-38.9813 -25.1925 -39.1965 -25.7122 -39.5797 -26.0953C-39.9628 -26.4784 -40.4824 -26.6936 -41.0242 -26.6936ZM-19.4139 -26.6936C-19.8179 -26.6936 -20.2129 -26.5738 -20.5489 -26.3493C-20.8849 -26.1249 -21.1467 -25.8058 -21.3013 -25.4325C-21.4559 -25.0592 -21.4964 -24.6484 -21.4176 -24.2521C-21.3388 -23.8558 -21.1442 -23.4918 -20.8585 -23.2061C-20.5728 -22.9204 -20.2087 -22.7258 -19.8124 -22.647C-19.4161 -22.5682 -19.0054 -22.6086 -18.6321 -22.7633C-18.2588 -22.9179 -17.9397 -23.1797 -17.7152 -23.5157C-17.4907 -23.8517 -17.3709 -24.2466 -17.3709 -24.6507C-17.3709 -24.9199 -17.4241 -25.1864 -17.5274 -25.4349C-17.6308 -25.6835 -17.7822 -25.9091 -17.973 -26.099C-18.1638 -26.2888 -18.3902 -26.4391 -18.6393 -26.5411C-18.8884 -26.6432 -19.1552 -26.695 -19.4243 -26.6936H-19.4139ZM2.19647 -26.6936C1.79219 -26.6947 1.39669 -26.5757 1.06004 -26.3519C0.723396 -26.128 0.460736 -25.8093 0.305308 -25.4361C0.14988 -25.0629 0.108678 -24.652 0.186915 -24.2553C0.265151 -23.8587 0.459312 -23.4942 0.744815 -23.208C1.03032 -22.9217 1.39432 -22.7266 1.79076 -22.6474C2.1872 -22.5681 2.59824 -22.6083 2.97184 -22.7628C3.34545 -22.9172 3.66482 -23.1791 3.88953 -23.5151C4.11424 -23.8512 4.23419 -24.2464 4.23419 -24.6507C4.2342 -24.9194 4.18118 -25.1855 4.07819 -25.4337C3.97519 -25.6819 3.82424 -25.9074 3.63398 -26.0971C3.44372 -26.2869 3.21789 -26.4373 2.96942 -26.5396C2.72096 -26.642 2.45474 -26.6943 2.18602 -26.6936H2.19647ZM23.8068 -26.6936C23.4025 -26.6947 23.007 -26.5757 22.6704 -26.3519C22.3337 -26.128 22.0711 -25.8093 21.9157 -25.4361C21.7602 -25.0629 21.719 -24.652 21.7973 -24.2553C21.8755 -23.8587 22.0697 -23.4942 22.3552 -23.208C22.6407 -22.9217 23.0047 -22.7266 23.4011 -22.6474C23.7975 -22.5681 24.2086 -22.6083 24.5822 -22.7628C24.9558 -22.9172 25.2752 -23.1791 25.4999 -23.5151C25.7246 -23.8512 25.8445 -24.2464 25.8445 -24.6507C25.8445 -24.9194 25.7915 -25.1855 25.6885 -25.4337C25.5855 -25.6819 25.4346 -25.9074 25.2443 -26.0971C25.0541 -26.2869 24.8282 -26.4373 24.5798 -26.5396C24.3313 -26.642 24.0651 -26.6943 23.7964 -26.6936H23.8068ZM45.412 -26.6936C45.0079 -26.6936 44.6129 -26.5738 44.277 -26.3493C43.941 -26.1249 43.6791 -25.8058 43.5245 -25.4325C43.3699 -25.0592 43.3294 -24.6484 43.4083 -24.2521C43.4871 -23.8558 43.6817 -23.4918 43.9674 -23.2061C44.2531 -22.9204 44.6171 -22.7258 45.0134 -22.647C45.4097 -22.5682 45.8205 -22.6086 46.1938 -22.7633C46.5671 -22.9179 46.8861 -23.1797 47.1106 -23.5157C47.3351 -23.8517 47.4549 -24.2466 47.4549 -24.6507C47.4549 -24.9199 47.4017 -25.1864 47.2984 -25.4349C47.1951 -25.6835 47.0437 -25.9091 46.8528 -26.099C46.662 -26.2888 46.4356 -26.4391 46.1865 -26.5411C45.9375 -26.6432 45.6707 -26.695 45.4015 -26.6936H45.412ZM67.0223 -26.6936C66.6183 -26.6936 66.2233 -26.5738 65.8873 -26.3493C65.5513 -26.1249 65.2895 -25.8058 65.1349 -25.4325C64.9802 -25.0592 64.9398 -24.6484 65.0186 -24.2521C65.0974 -23.8558 65.292 -23.4918 65.5777 -23.2061C65.8634 -22.9204 66.2275 -22.7258 66.6237 -22.647C67.02 -22.5682 67.4308 -22.6086 67.8041 -22.7633C68.1774 -22.9179 68.4965 -23.1797 68.721 -23.5157C68.9454 -23.8517 69.0653 -24.2466 69.0653 -24.6507C69.0653 -24.9199 69.0121 -25.1864 68.9088 -25.4349C68.8054 -25.6835 68.654 -25.9091 68.4632 -26.099C68.2724 -26.2888 68.0459 -26.4391 67.7969 -26.5411C67.5478 -26.6432 67.281 -26.695 67.0119 -26.6936H67.0223ZM88.6327 -26.6936C88.2278 -26.6999 87.8302 -26.5856 87.4903 -26.3654C87.1505 -26.1452 86.8838 -25.8289 86.7241 -25.4568C86.5643 -25.0847 86.5188 -24.6736 86.5932 -24.2755C86.6676 -23.8775 86.8586 -23.5105 87.142 -23.2213C87.4254 -22.932 87.7883 -22.7335 88.1847 -22.6509C88.5812 -22.5683 88.9932 -22.6054 89.3685 -22.7575C89.7438 -22.9095 90.0654 -23.1697 90.2926 -23.5049C90.5197 -23.8401 90.6421 -24.2353 90.6443 -24.6402C90.6471 -25.1803 90.4359 -25.6994 90.057 -26.0842C89.6781 -26.469 89.1622 -26.6881 88.6222 -26.6936H88.6327ZM-105.861 -5.76776C-106.264 -5.76877 -106.659 -5.65034 -106.995 -5.4274C-107.331 -5.20445 -107.594 -4.88698 -107.75 -4.51499C-107.906 -4.143 -107.948 -3.73314 -107.871 -3.33709C-107.795 -2.94103 -107.603 -2.57651 -107.319 -2.28946C-107.036 -2.00241 -106.674 -1.80569 -106.279 -1.72409C-105.884 -1.6425 -105.473 -1.67968 -105.1 -1.83095C-104.726 -1.98222 -104.405 -2.24081 -104.178 -2.57412C-103.95 -2.90743 -103.827 -3.30055 -103.823 -3.70391C-103.82 -3.97351 -103.871 -4.24099 -103.972 -4.49092C-104.073 -4.74086 -104.222 -4.96831 -104.412 -5.16017C-104.601 -5.35202 -104.827 -5.50449 -105.075 -5.60877C-105.324 -5.71305 -105.591 -5.76708 -105.861 -5.76776ZM-84.2502 -5.76776C-84.6547 -5.76879 -85.0504 -5.64972 -85.3871 -5.42564C-85.7239 -5.20155 -85.9865 -4.88254 -86.1418 -4.50903C-86.2971 -4.13552 -86.338 -3.72431 -86.2593 -3.32753C-86.1807 -2.93075 -85.986 -2.56626 -85.7 -2.28023C-85.4139 -1.9942 -85.0494 -1.79953 -84.6527 -1.72087C-84.2559 -1.6422 -83.8447 -1.6831 -83.4712 -1.83837C-83.0977 -1.99365 -82.7786 -2.25631 -82.5546 -2.59307C-82.3305 -2.92983 -82.2114 -3.32553 -82.2124 -3.73004C-82.2138 -4.27005 -82.4289 -4.78755 -82.8108 -5.1694C-83.1926 -5.55125 -83.7101 -5.76638 -84.2502 -5.76776ZM-62.645 -5.76776C-63.0482 -5.76774 -63.4423 -5.64843 -63.7778 -5.42486C-64.1133 -5.20129 -64.3752 -4.88345 -64.5304 -4.51136C-64.6856 -4.13928 -64.7273 -3.72958 -64.6501 -3.33387C-64.573 -2.93816 -64.3805 -2.57412 -64.0968 -2.2876C-63.8132 -2.00107 -63.4512 -1.80486 -63.0563 -1.72369C-62.6613 -1.64252 -62.2512 -1.68001 -61.8776 -1.83143C-61.504 -1.98286 -61.1835 -2.24146 -60.9565 -2.57466C-60.7295 -2.90786 -60.6062 -3.30077 -60.6021 -3.70391C-60.5993 -3.97395 -60.6501 -4.24185 -60.7516 -4.49213C-60.853 -4.74241 -61.003 -4.9701 -61.193 -5.16202C-61.383 -5.35395 -61.6091 -5.5063 -61.8584 -5.61028C-62.1076 -5.71425 -62.375 -5.76777 -62.645 -5.76776ZM-41.0347 -5.76776C-41.439 -5.76776 -41.8342 -5.64781 -42.1702 -5.42309C-42.5063 -5.19838 -42.7681 -4.87901 -42.9226 -4.5054C-43.0771 -4.1318 -43.1172 -3.72076 -43.038 -3.32432C-42.9587 -2.92789 -42.7636 -2.56388 -42.4774 -2.27838C-42.1912 -1.99287 -41.8267 -1.79871 -41.43 -1.72048C-41.0334 -1.64224 -40.6225 -1.68345 -40.2493 -1.83887C-39.876 -1.9943 -39.5573 -2.25696 -39.3335 -2.59361C-39.1096 -2.93026 -38.9907 -3.32576 -38.9917 -3.73004C-38.9931 -4.26915 -39.2075 -4.78586 -39.5882 -5.16756C-39.969 -5.54926 -40.4851 -5.765 -41.0242 -5.76776H-41.0347ZM-19.4243 -5.76776C-19.8286 -5.76776 -20.2238 -5.64781 -20.5599 -5.42309C-20.8959 -5.19838 -21.1578 -4.87901 -21.3123 -4.5054C-21.4667 -4.1318 -21.5069 -3.72076 -21.4276 -3.32432C-21.3484 -2.92789 -21.1533 -2.56388 -20.8671 -2.27838C-20.5808 -1.99287 -20.2163 -1.79871 -19.8197 -1.72048C-19.423 -1.64224 -19.0121 -1.68345 -18.6389 -1.83887C-18.2657 -1.9943 -17.947 -2.25696 -17.7231 -2.59361C-17.4993 -2.93026 -17.3803 -3.32576 -17.3814 -3.73004C-17.3828 -4.27095 -17.5986 -4.78924 -17.9816 -5.17124C-18.3646 -5.55324 -18.8834 -5.76776 -19.4243 -5.76776ZM2.18602 -5.76776C1.78152 -5.76879 1.38582 -5.64972 1.04906 -5.42564C0.712297 -5.20155 0.449635 -4.88254 0.294362 -4.50903C0.139088 -4.13552 0.0981921 -3.72431 0.176853 -3.32753C0.255514 -2.93075 0.450194 -2.56626 0.736221 -2.28023C1.02225 -1.9942 1.38674 -1.79953 1.78352 -1.72087C2.1803 -1.6422 2.5915 -1.6831 2.96502 -1.83837C3.33853 -1.99365 3.65754 -2.25631 3.88163 -2.59307C4.10571 -2.92983 4.22478 -3.32553 4.22375 -3.73004C4.22237 -4.27005 4.00724 -4.78755 3.62539 -5.1694C3.24354 -5.55125 2.72603 -5.76638 2.18602 -5.76776ZM23.7964 -5.76776C23.3939 -5.76465 23.0013 -5.64272 22.6679 -5.41728C22.3344 -5.19184 22.075 -4.87292 21.9222 -4.50057C21.7694 -4.12822 21.7299 -3.71903 21.8089 -3.32434C21.8878 -2.92966 22.0815 -2.56709 22.3657 -2.28212C22.65 -1.99715 23.0121 -1.8025 23.4066 -1.72259C23.801 -1.64268 24.2103 -1.68107 24.5831 -1.83295C24.9558 -1.98483 25.2754 -2.24343 25.5017 -2.57629C25.7279 -2.90915 25.8509 -3.30144 25.855 -3.70391C25.8578 -3.97527 25.8065 -4.24447 25.7041 -4.49578C25.6017 -4.7471 25.4502 -4.97549 25.2586 -5.16762C25.0669 -5.35976 24.8389 -5.51178 24.5879 -5.61482C24.3368 -5.71787 24.0677 -5.76986 23.7964 -5.76776ZM45.4015 -5.76776C44.9972 -5.76776 44.602 -5.64781 44.266 -5.42309C43.9299 -5.19838 43.668 -4.87901 43.5136 -4.5054C43.3591 -4.1318 43.3189 -3.72076 43.3982 -3.32432C43.4774 -2.92789 43.6725 -2.56388 43.9588 -2.27838C44.245 -1.99287 44.6095 -1.79871 45.0062 -1.72048C45.4028 -1.64224 45.8137 -1.68345 46.1869 -1.83887C46.5601 -1.9943 46.8789 -2.25696 47.1027 -2.59361C47.3266 -2.93026 47.4455 -3.32576 47.4445 -3.73004C47.4431 -4.27095 47.2272 -4.78924 46.8443 -5.17124C46.4613 -5.55324 45.9424 -5.76776 45.4015 -5.76776ZM67.0119 -5.76776C66.6076 -5.76776 66.2124 -5.64781 65.8763 -5.42309C65.5402 -5.19838 65.2784 -4.87901 65.1239 -4.5054C64.9695 -4.1318 64.9293 -3.72076 65.0086 -3.32432C65.0878 -2.92789 65.2829 -2.56388 65.5691 -2.27838C65.8554 -1.99287 66.2199 -1.79871 66.6165 -1.72048C67.0131 -1.64224 67.4241 -1.68345 67.7973 -1.83887C68.1705 -1.9943 68.4892 -2.25696 68.7131 -2.59361C68.9369 -2.93026 69.0558 -3.32576 69.0548 -3.73004C69.0534 -4.27095 68.8376 -4.78924 68.4546 -5.17124C68.0716 -5.55324 67.5528 -5.76776 67.0119 -5.76776ZM88.6222 -5.76776C88.2182 -5.77187 87.822 -5.65609 87.4838 -5.43505C87.1456 -5.214 86.8805 -4.89763 86.7221 -4.52593C86.5636 -4.15424 86.519 -3.74392 86.5938 -3.34685C86.6685 -2.94978 86.8594 -2.5838 87.1421 -2.29518C87.4249 -2.00657 87.7869 -1.80829 88.1824 -1.72541C88.5778 -1.64253 88.989 -1.67877 89.3638 -1.82956C89.7387 -1.98034 90.0604 -2.2389 90.2883 -2.57253C90.5163 -2.90616 90.6401 -3.29988 90.6443 -3.70391C90.647 -3.9722 90.5969 -4.2384 90.4968 -4.48732C90.3967 -4.73624 90.2485 -4.963 90.0607 -5.15465C89.8729 -5.3463 89.6493 -5.49908 89.4024 -5.60428C89.1556 -5.70948 88.8905 -5.76503 88.6222 -5.76776ZM-105.861 15.132C-106.264 15.131 -106.659 15.2494 -106.995 15.4724C-107.331 15.6953 -107.594 16.0128 -107.75 16.3848C-107.906 16.7568 -107.948 17.1666 -107.871 17.5627C-107.795 17.9587 -107.603 18.3233 -107.319 18.6103C-107.036 18.8973 -106.674 19.0941 -106.279 19.1757C-105.884 19.2573 -105.473 19.2201 -105.1 19.0688C-104.726 18.9175 -104.405 18.659 -104.178 18.3256C-103.95 17.9923 -103.827 17.5992 -103.823 17.1959C-103.821 16.9271 -103.873 16.6608 -103.975 16.412C-104.077 16.1633 -104.226 15.9371 -104.416 15.7464C-104.605 15.5556 -104.83 15.4041 -105.078 15.3005C-105.326 15.1968 -105.592 15.1431 -105.861 15.1424V15.132ZM-84.2502 15.132C-84.6544 15.131 -85.0499 15.2499 -85.3866 15.4738C-85.7232 15.6976 -85.9859 16.0163 -86.1413 16.3895C-86.2968 16.7627 -86.338 17.1737 -86.2597 17.5703C-86.1815 17.9669 -85.9873 18.3314 -85.7018 18.6177C-85.4163 18.9039 -85.0523 19.099 -84.6559 19.1783C-84.2594 19.2575 -83.8484 19.2174 -83.4748 19.0629C-83.1012 18.9084 -82.7818 18.6466 -82.5571 18.3105C-82.3324 17.9744 -82.2124 17.5792 -82.2124 17.175C-82.2152 16.6358 -82.4309 16.1197 -82.8126 15.739C-83.1943 15.3582 -83.711 15.1438 -84.2502 15.1424V15.132ZM-62.645 15.132C-63.0482 15.132 -63.4423 15.2513 -63.7778 15.4749C-64.1133 15.6985 -64.3752 16.0163 -64.5304 16.3884C-64.6856 16.7605 -64.7273 17.1702 -64.6501 17.5659C-64.573 17.9616 -64.3805 18.3256 -64.0968 18.6122C-63.8132 18.8987 -63.4512 19.0949 -63.0563 19.1761C-62.6613 19.2572 -62.2512 19.2198 -61.8776 19.0683C-61.504 18.9169 -61.1835 18.6583 -60.9565 18.3251C-60.7295 17.9919 -60.6062 17.599 -60.6021 17.1959C-60.6007 16.9267 -60.6525 16.6599 -60.7546 16.4108C-60.8566 16.1618 -61.0069 15.9353 -61.1967 15.7445C-61.3866 15.5537 -61.6123 15.4023 -61.8608 15.299C-62.1094 15.1956 -62.3759 15.1424 -62.645 15.1424V15.132ZM-41.0347 15.132C-41.4387 15.132 -41.8337 15.2518 -42.1697 15.4763C-42.5056 15.7008 -42.7675 16.0198 -42.9221 16.3931C-43.0767 16.7664 -43.1172 17.1772 -43.0384 17.5735C-42.9596 17.9698 -42.765 18.3338 -42.4793 18.6195C-42.1936 18.9052 -41.8295 19.0998 -41.4332 19.1786C-41.0369 19.2575 -40.6262 19.217 -40.2529 19.0624C-39.8796 18.9078 -39.5605 18.6459 -39.336 18.31C-39.1115 17.974 -38.9917 17.579 -38.9917 17.175C-38.9945 16.6367 -39.2095 16.1214 -39.5901 15.7408C-39.9706 15.3602 -40.486 15.1452 -41.0242 15.1424L-41.0347 15.132ZM-19.4243 15.132C-19.8284 15.132 -20.2234 15.2518 -20.5593 15.4763C-20.8953 15.7008 -21.1571 16.0198 -21.3118 16.3931C-21.4664 16.7664 -21.5069 17.1772 -21.428 17.5735C-21.3492 17.9698 -21.1546 18.3338 -20.8689 18.6195C-20.5832 18.9052 -20.2192 19.0998 -19.8229 19.1786C-19.4266 19.2575 -19.0158 19.217 -18.6425 19.0624C-18.2692 18.9078 -17.9502 18.6459 -17.7257 18.31C-17.5012 17.974 -17.3814 17.579 -17.3814 17.175C-17.3841 16.6349 -17.6006 16.118 -17.9834 15.7371C-18.3663 15.3562 -18.8843 15.1424 -19.4243 15.1424V15.132ZM2.18602 15.132C1.78174 15.131 1.38625 15.2499 1.0496 15.4738C0.712952 15.6976 0.450284 16.0163 0.294856 16.3895C0.139428 16.7627 0.0982258 17.1737 0.176462 17.5703C0.254699 17.9669 0.44886 18.3314 0.734363 18.6177C1.01987 18.9039 1.38387 19.099 1.78031 19.1783C2.17674 19.2575 2.58778 19.2174 2.96139 19.0629C3.33499 18.9084 3.65436 18.6466 3.87908 18.3105C4.10379 17.9744 4.22375 17.5792 4.22375 17.175C4.22099 16.6358 4.00526 16.1197 3.62355 15.739C3.24185 15.3582 2.72513 15.1438 2.18602 15.1424V15.132ZM23.7964 15.132C23.3939 15.1351 23.0013 15.257 22.6679 15.4825C22.3344 15.7079 22.075 16.0268 21.9222 16.3992C21.7694 16.7715 21.7299 17.1807 21.8089 17.5754C21.8878 17.9701 22.0815 18.3327 22.3657 18.6176C22.65 18.9026 23.0121 19.0973 23.4066 19.1772C23.801 19.2571 24.2103 19.2187 24.5831 19.0668C24.9558 18.9149 25.2754 18.6563 25.5017 18.3235C25.7279 17.9906 25.8509 17.5983 25.855 17.1959C25.8564 16.9254 25.8041 16.6573 25.701 16.4072C25.598 16.1571 25.4463 15.9299 25.2548 15.7389C25.0633 15.5479 24.8358 15.3968 24.5854 15.2944C24.3351 15.192 24.0669 15.1404 23.7964 15.1424V15.132ZM45.4015 15.132C44.9975 15.132 44.6025 15.2518 44.2665 15.4763C43.9305 15.7008 43.6687 16.0198 43.5141 16.3931C43.3594 16.7664 43.319 17.1772 43.3978 17.5735C43.4766 17.9698 43.6712 18.3338 43.9569 18.6195C44.2426 18.9052 44.6066 19.0998 45.0029 19.1786C45.3992 19.2575 45.81 19.217 46.1833 19.0624C46.5566 18.9078 46.8757 18.6459 47.1002 18.31C47.3246 17.974 47.4445 17.579 47.4445 17.175C47.4417 16.6349 47.2252 16.118 46.8424 15.7371C46.4596 15.3562 45.9415 15.1424 45.4015 15.1424V15.132ZM67.0119 15.132C66.6078 15.132 66.2128 15.2518 65.8769 15.4763C65.5409 15.7008 65.279 16.0198 65.1244 16.3931C64.9698 16.7664 64.9293 17.1772 65.0082 17.5735C65.087 17.9698 65.2816 18.3338 65.5673 18.6195C65.853 18.9052 66.217 19.0998 66.6133 19.1786C67.0096 19.2575 67.4204 19.217 67.7937 19.0624C68.167 18.9078 68.486 18.6459 68.7105 18.31C68.935 17.974 69.0548 17.579 69.0548 17.175C69.052 16.6349 68.8356 16.118 68.4528 15.7371C68.0699 15.3562 67.5519 15.1424 67.0119 15.1424V15.132ZM88.6222 15.132C88.2182 15.1279 87.822 15.2437 87.4838 15.4647C87.1456 15.6858 86.8805 16.0021 86.7221 16.3738C86.5636 16.7455 86.519 17.1558 86.5938 17.5529C86.6685 17.95 86.8594 18.316 87.1421 18.6046C87.4249 18.8932 87.7869 19.0915 88.1824 19.1744C88.5778 19.2572 88.989 19.221 89.3638 19.0702C89.7387 18.9194 90.0604 18.6609 90.2883 18.3272C90.5163 17.9936 90.6401 17.5999 90.6443 17.1959C90.6471 16.6558 90.4359 16.1367 90.057 15.7519C89.6781 15.3671 89.1622 15.148 88.6222 15.1424V15.132ZM-105.861 36.0579C-106.265 36.0569 -106.661 36.1759 -106.997 36.4C-107.334 36.6241 -107.597 36.9431 -107.752 37.3166C-107.907 37.6901 -107.948 38.1013 -107.87 38.4981C-107.791 38.8949 -107.596 39.2594 -107.31 39.5454C-107.024 39.8314 -106.66 40.0261 -106.263 40.1048C-105.866 40.1834 -105.455 40.1425 -105.082 39.9873C-104.708 39.832 -104.389 39.5693 -104.165 39.2326C-103.941 38.8958 -103.822 38.5001 -103.823 38.0956C-103.824 37.5556 -104.039 37.0381 -104.421 36.6562C-104.803 36.2744 -105.32 36.0593 -105.861 36.0579ZM-84.2502 36.0579C-84.6547 36.0569 -85.0504 36.1759 -85.3871 36.4C-85.7239 36.6241 -85.9865 36.9431 -86.1418 37.3166C-86.2971 37.6901 -86.338 38.1013 -86.2593 38.4981C-86.1807 38.8949 -85.986 39.2594 -85.7 39.5454C-85.4139 39.8314 -85.0494 40.0261 -84.6527 40.1048C-84.2559 40.1834 -83.8447 40.1425 -83.4712 39.9873C-83.0977 39.832 -82.7786 39.5693 -82.5546 39.2326C-82.3305 38.8958 -82.2114 38.5001 -82.2124 38.0956C-82.2138 37.5556 -82.4289 37.0381 -82.8108 36.6562C-83.1926 36.2744 -83.7101 36.0593 -84.2502 36.0579ZM-62.645 36.0579C-63.0493 36.0579 -63.4445 36.1778 -63.7806 36.4025C-64.1167 36.6273 -64.3785 36.9466 -64.533 37.3202C-64.6874 37.6938 -64.7276 38.1049 -64.6483 38.5013C-64.5691 38.8978 -64.374 39.2618 -64.0878 39.5473C-63.8015 39.8328 -63.437 40.0269 -63.0404 40.1052C-62.6437 40.1834 -62.2328 40.1422 -61.8596 39.9868C-61.4864 39.8313 -61.1677 39.5687 -60.9438 39.232C-60.72 38.8954 -60.601 38.4999 -60.6021 38.0956C-60.6035 37.5547 -60.8193 37.0364 -61.2023 36.6544C-61.5853 36.2724 -62.1041 36.0579 -62.645 36.0579ZM-41.0347 36.0579C-41.439 36.0579 -41.8342 36.1778 -42.1702 36.4025C-42.5063 36.6273 -42.7681 36.9466 -42.9226 37.3202C-43.0771 37.6938 -43.1172 38.1049 -43.038 38.5013C-42.9587 38.8978 -42.7636 39.2618 -42.4774 39.5473C-42.1912 39.8328 -41.8267 40.0269 -41.43 40.1052C-41.0334 40.1834 -40.6225 40.1422 -40.2493 39.9868C-39.876 39.8313 -39.5573 39.5687 -39.3335 39.232C-39.1096 38.8954 -38.9907 38.4999 -38.9917 38.0956C-38.9931 37.5565 -39.2075 37.0398 -39.5882 36.6581C-39.969 36.2764 -40.4851 36.0606 -41.0242 36.0579H-41.0347ZM-19.4243 36.0579C-19.8286 36.0579 -20.2238 36.1778 -20.5599 36.4025C-20.8959 36.6273 -21.1578 36.9466 -21.3123 37.3202C-21.4667 37.6938 -21.5069 38.1049 -21.4276 38.5013C-21.3484 38.8978 -21.1533 39.2618 -20.8671 39.5473C-20.5808 39.8328 -20.2163 40.0269 -19.8197 40.1052C-19.423 40.1834 -19.0121 40.1422 -18.6389 39.9868C-18.2657 39.8313 -17.947 39.5687 -17.7231 39.232C-17.4993 38.8954 -17.3803 38.4999 -17.3814 38.0956C-17.3828 37.5547 -17.5986 37.0364 -17.9816 36.6544C-18.3646 36.2724 -18.8834 36.0579 -19.4243 36.0579ZM2.18602 36.0579C1.78152 36.0569 1.38582 36.1759 1.04906 36.4C0.712297 36.6241 0.449635 36.9431 0.294362 37.3166C0.139088 37.6901 0.0981921 38.1013 0.176853 38.4981C0.255514 38.8949 0.450194 39.2594 0.736221 39.5454C1.02225 39.8314 1.38674 40.0261 1.78352 40.1048C2.1803 40.1834 2.5915 40.1425 2.96502 39.9873C3.33853 39.832 3.65754 39.5693 3.88163 39.2326C4.10571 38.8958 4.22478 38.5001 4.22375 38.0956C4.22237 37.5556 4.00724 37.0381 3.62539 36.6562C3.24354 36.2744 2.72603 36.0593 2.18602 36.0579ZM23.7964 36.0579C23.3928 36.061 22.9991 36.1836 22.6651 36.4101C22.3311 36.6367 22.0717 36.9572 21.9197 37.331C21.7676 37.7049 21.7297 38.1154 21.8107 38.5108C21.8917 38.9062 22.088 39.2688 22.3749 39.5527C22.6617 39.8366 23.0262 40.0293 23.4224 40.1062C23.8186 40.1832 24.2288 40.1411 24.6011 39.9852C24.9734 39.8293 25.2911 39.5667 25.5143 39.2304C25.7375 38.8941 25.856 38.4992 25.855 38.0956C25.8543 37.8264 25.8005 37.5601 25.6965 37.3118C25.5925 37.0635 25.4405 36.8382 25.2492 36.6488C25.0579 36.4595 24.8311 36.3098 24.5818 36.2084C24.3325 36.107 24.0655 36.0558 23.7964 36.0579ZM45.4015 36.0579C44.9972 36.0579 44.602 36.1778 44.266 36.4025C43.9299 36.6273 43.668 36.9466 43.5136 37.3202C43.3591 37.6938 43.3189 38.1049 43.3982 38.5013C43.4774 38.8978 43.6725 39.2618 43.9588 39.5473C44.245 39.8328 44.6095 40.0269 45.0062 40.1052C45.4028 40.1834 45.8137 40.1422 46.1869 39.9868C46.5601 39.8313 46.8789 39.5687 47.1027 39.232C47.3266 38.8954 47.4455 38.4999 47.4445 38.0956C47.4431 37.5547 47.2272 37.0364 46.8443 36.6544C46.4613 36.2724 45.9424 36.0579 45.4015 36.0579ZM67.0119 36.0579C66.6076 36.0579 66.2124 36.1778 65.8763 36.4025C65.5402 36.6273 65.2784 36.9466 65.1239 37.3202C64.9695 37.6938 64.9293 38.1049 65.0086 38.5013C65.0878 38.8978 65.2829 39.2618 65.5691 39.5473C65.8554 39.8328 66.2199 40.0269 66.6165 40.1052C67.0131 40.1834 67.4241 40.1422 67.7973 39.9868C68.1705 39.8313 68.4892 39.5687 68.7131 39.232C68.9369 38.8954 69.0558 38.4999 69.0548 38.0956C69.0534 37.5547 68.8376 37.0364 68.4546 36.6544C68.0716 36.2724 67.5528 36.0579 67.0119 36.0579ZM88.6222 36.0579C88.2171 36.0537 87.8198 36.1702 87.481 36.3923C87.1422 36.6145 86.8771 36.9324 86.7194 37.3056C86.5618 37.6789 86.5186 38.0906 86.5955 38.4884C86.6724 38.8862 86.8658 39.2521 87.1512 39.5397C87.4366 39.8273 87.801 40.0236 88.1982 40.1035C88.5954 40.1835 89.0074 40.1435 89.3818 39.9887C89.7563 39.8339 90.0762 39.5713 90.301 39.2342C90.5258 38.8971 90.6453 38.5008 90.6443 38.0956C90.6429 37.5583 90.4299 37.0431 90.0515 36.6617C89.673 36.2803 89.1595 36.0634 88.6222 36.0579ZM-105.861 56.9576C-106.265 56.9566 -106.661 57.0757 -106.997 57.2998C-107.334 57.5239 -107.597 57.8429 -107.752 58.2164C-107.907 58.5899 -107.948 59.0011 -107.87 59.3979C-107.791 59.7946 -107.596 60.1591 -107.31 60.4452C-107.024 60.7312 -106.66 60.9259 -106.263 61.0045C-105.866 61.0832 -105.455 61.0423 -105.082 60.887C-104.708 60.7318 -104.389 60.4691 -104.165 60.1323C-103.941 59.7956 -103.822 59.3999 -103.823 58.9954C-103.827 58.4572 -104.043 57.9423 -104.425 57.5627C-104.806 57.1831 -105.322 56.9695 -105.861 56.9681V56.9576ZM-84.2502 56.9576C-84.6544 56.9566 -85.0499 57.0755 -85.3866 57.2994C-85.7232 57.5233 -85.9859 57.842 -86.1413 58.2152C-86.2968 58.5884 -86.338 58.9993 -86.2597 59.3959C-86.1815 59.7926 -85.9873 60.1571 -85.7018 60.4433C-85.4163 60.7296 -85.0523 60.9246 -84.6559 61.0039C-84.2594 61.0831 -83.8484 61.043 -83.4748 60.8885C-83.1012 60.7341 -82.7818 60.4722 -82.5571 60.1361C-82.3324 59.8001 -82.2124 59.4049 -82.2124 59.0006C-82.2152 58.4615 -82.4309 57.9453 -82.8126 57.5646C-83.1943 57.1839 -83.711 56.9695 -84.2502 56.9681V56.9576ZM-62.645 56.9576C-63.0493 56.9576 -63.4445 57.0776 -63.7806 57.3023C-64.1167 57.527 -64.3785 57.8464 -64.533 58.22C-64.6874 58.5936 -64.7276 59.0046 -64.6483 59.4011C-64.5691 59.7975 -64.374 60.1615 -64.0878 60.447C-63.8015 60.7325 -63.437 60.9267 -63.0404 61.0049C-62.6437 61.0832 -62.2328 61.042 -61.8596 60.8865C-61.4864 60.7311 -61.1677 60.4684 -60.9438 60.1318C-60.72 59.7951 -60.601 59.3996 -60.6021 58.9954C-60.6062 58.4563 -60.8233 57.9407 -61.206 57.5609C-61.5886 57.1812 -62.1059 56.9681 -62.645 56.9681V56.9576ZM-41.0347 56.9576C-41.4387 56.9576 -41.8337 57.0775 -42.1697 57.3019C-42.5056 57.5264 -42.7675 57.8455 -42.9221 58.2188C-43.0767 58.5921 -43.1172 59.0029 -43.0384 59.3992C-42.9596 59.7954 -42.765 60.1595 -42.4793 60.4452C-42.1936 60.7309 -41.8295 60.9255 -41.4332 61.0043C-41.0369 61.0831 -40.6262 61.0427 -40.2529 60.888C-39.8796 60.7334 -39.5605 60.4716 -39.336 60.1356C-39.1115 59.7996 -38.9917 59.4046 -38.9917 59.0006C-38.9945 58.4624 -39.2095 57.947 -39.5901 57.5664C-39.9706 57.1859 -40.486 56.9708 -41.0242 56.9681L-41.0347 56.9576ZM-19.4243 56.9576C-19.8284 56.9576 -20.2234 57.0775 -20.5593 57.3019C-20.8953 57.5264 -21.1571 57.8455 -21.3118 58.2188C-21.4664 58.5921 -21.5069 59.0029 -21.428 59.3992C-21.3492 59.7954 -21.1546 60.1595 -20.8689 60.4452C-20.5832 60.7309 -20.2192 60.9255 -19.8229 61.0043C-19.4266 61.0831 -19.0158 61.0427 -18.6425 60.888C-18.2692 60.7334 -17.9502 60.4716 -17.7257 60.1356C-17.5012 59.7996 -17.3814 59.4046 -17.3814 59.0006C-17.3841 58.4606 -17.6006 57.9436 -17.9834 57.5628C-18.3663 57.1819 -18.8843 56.9681 -19.4243 56.9681V56.9576ZM2.18602 56.9576C1.78174 56.9566 1.38625 57.0755 1.0496 57.2994C0.712952 57.5233 0.450284 57.842 0.294856 58.2152C0.139428 58.5884 0.0982258 58.9993 0.176462 59.3959C0.254699 59.7926 0.44886 60.1571 0.734363 60.4433C1.01987 60.7296 1.38387 60.9246 1.78031 61.0039C2.17674 61.0831 2.58778 61.043 2.96139 60.8885C3.33499 60.7341 3.65436 60.4722 3.87908 60.1361C4.10379 59.8001 4.22375 59.4049 4.22375 59.0006C4.22099 58.4615 4.00526 57.9453 3.62355 57.5646C3.24185 57.1839 2.72513 56.9695 2.18602 56.9681V56.9576ZM23.7964 56.9576C23.3928 56.9607 22.9991 57.0833 22.6651 57.3099C22.3311 57.5365 22.0717 57.8569 21.9197 58.2308C21.7676 58.6047 21.7297 59.0152 21.8107 59.4106C21.8917 59.806 22.088 60.1685 22.3749 60.4525C22.6617 60.7364 23.0262 60.929 23.4224 61.006C23.8186 61.083 24.2288 61.0409 24.6011 60.885C24.9734 60.7291 25.2911 60.4664 25.5143 60.1301C25.7375 59.7938 25.856 59.399 25.855 58.9954C25.853 58.7271 25.7981 58.4618 25.6935 58.2147C25.5889 57.9677 25.4367 57.7436 25.2456 57.5554C25.0544 57.3671 24.828 57.2183 24.5794 57.1176C24.3307 57.0168 24.0647 56.966 23.7964 56.9681V56.9576ZM45.4015 56.9576C44.9975 56.9576 44.6025 57.0775 44.2665 57.3019C43.9305 57.5264 43.6687 57.8455 43.5141 58.2188C43.3594 58.5921 43.319 59.0029 43.3978 59.3992C43.4766 59.7954 43.6712 60.1595 43.9569 60.4452C44.2426 60.7309 44.6066 60.9255 45.0029 61.0043C45.3992 61.0831 45.81 61.0427 46.1833 60.888C46.5566 60.7334 46.8757 60.4716 47.1002 60.1356C47.3246 59.7996 47.4445 59.4046 47.4445 59.0006C47.4417 58.4606 47.2252 57.9436 46.8424 57.5628C46.4596 57.1819 45.9415 56.9681 45.4015 56.9681V56.9576ZM67.0119 56.9576C66.6078 56.9576 66.2128 57.0775 65.8769 57.3019C65.5409 57.5264 65.279 57.8455 65.1244 58.2188C64.9698 58.5921 64.9293 59.0029 65.0082 59.3992C65.087 59.7954 65.2816 60.1595 65.5673 60.4452C65.853 60.7309 66.217 60.9255 66.6133 61.0043C67.0096 61.0831 67.4204 61.0427 67.7937 60.888C68.167 60.7334 68.486 60.4716 68.7105 60.1356C68.935 59.7996 69.0548 59.4046 69.0548 59.0006C69.052 58.4606 68.8356 57.9436 68.4528 57.5628C68.0699 57.1819 67.5519 56.9681 67.0119 56.9681V56.9576ZM88.6222 56.9576C88.2171 56.9535 87.8198 57.0699 87.481 57.2921C87.1422 57.5143 86.8771 57.8322 86.7194 58.2054C86.5618 58.5786 86.5186 58.9903 86.5955 59.3881C86.6724 59.7859 86.8658 60.1519 87.1512 60.4395C87.4366 60.7271 87.801 60.9233 88.1982 61.0033C88.5954 61.0832 89.0074 61.0433 89.3818 60.8885C89.7563 60.7337 90.0762 60.471 90.301 60.1339C90.5258 59.7969 90.6453 59.4005 90.6443 58.9954C90.6402 58.4599 90.426 57.9474 90.0478 57.5682C89.6696 57.1891 89.1577 56.9736 88.6222 56.9681V56.9576Z" fill="black"/>
</g>
<defs>
<clipPath id="clip0_584_788">
<rect width="198.913" height="108.94" fill="white" transform="translate(-108.06 -47.75)"/>
</clipPath>
</defs>
</svg>
