<svg width="199" height="109" viewBox="0 0 199 109" fill="none" xmlns="http://www.w3.org/2000/svg">
<g clip-path="url(#clip0_585_683)">
<g clip-path="url(#clip1_585_683)">
<g clip-path="url(#clip2_585_683)">
<g clip-path="url(#clip3_585_683)">
<path d="M4.04538 2.19954C4.04538 2.60382 3.92543 2.99901 3.70071 3.33509C3.476 3.67116 3.15662 3.93301 2.78302 4.08748C2.40941 4.24195 1.99838 4.2821 1.60194 4.20285C1.2055 4.1236 0.841495 3.92851 0.555992 3.64227C0.270489 3.35604 0.07633 2.99153 -0.00190666 2.59489C-0.0801434 2.19825 -0.0389399 1.78732 0.116488 1.41411C0.271915 1.04091 0.534579 0.722203 0.871227 0.49835C1.20788 0.274497 1.60337 0.155559 2.00765 0.156593C2.54857 0.157977 3.06686 0.373826 3.44886 0.756804C3.83086 1.13978 4.04538 1.65862 4.04538 2.19954ZM23.618 0.156593C23.2137 0.155559 22.8182 0.274497 22.4816 0.49835C22.1449 0.722203 21.8823 1.04091 21.7268 1.41411C21.5714 1.78732 21.5302 2.19825 21.6084 2.59489C21.6867 2.99153 21.8808 3.35604 22.1663 3.64227C22.4518 3.92851 22.8159 4.1236 23.2123 4.20285C23.6087 4.2821 24.0198 4.24195 24.3934 4.08748C24.767 3.93301 25.0863 3.67116 25.3111 3.33509C25.5358 2.99901 25.6557 2.60382 25.6557 2.19954C25.6557 1.65862 25.4412 1.13978 25.0592 0.756804C24.6772 0.373826 24.1589 0.157977 23.618 0.156593ZM45.2231 0.156593C44.8191 0.156593 44.4241 0.27641 44.0881 0.500893C43.7522 0.725375 43.4903 1.04444 43.3357 1.41774C43.1811 1.79104 43.1406 2.20181 43.2194 2.5981C43.2983 2.9944 43.4928 3.35842 43.7785 3.64413C44.0643 3.92984 44.4283 4.12441 44.8246 4.20324C45.2209 4.28207 45.6316 4.24161 46.0049 4.08699C46.3782 3.93236 46.6973 3.67051 46.9218 3.33455C47.1463 2.99859 47.2661 2.6036 47.2661 2.19954C47.2661 1.65772 47.0508 1.13809 46.6677 0.75496C46.2846 0.371832 45.765 0.156593 45.2231 0.156593ZM66.8439 0.156593C66.4399 0.156593 66.0449 0.27641 65.7089 0.500893C65.373 0.725375 65.1111 1.04444 64.9565 1.41774C64.8019 1.79104 64.7614 2.20181 64.8402 2.5981C64.9191 2.9944 65.1136 3.35842 65.3993 3.64413C65.6851 3.92984 66.0491 4.12441 66.4454 4.20324C66.8417 4.28207 67.2524 4.24161 67.6257 4.08699C67.999 3.93236 68.3181 3.67051 68.5426 3.33455C68.7671 2.99859 68.8869 2.6036 68.8869 2.19954C68.8869 1.65772 68.6716 1.13809 68.2885 0.75496C67.9054 0.371832 67.3857 0.156593 66.8439 0.156593ZM88.4543 0.156593C88.0502 0.156593 87.6552 0.27641 87.3193 0.500893C86.9833 0.725375 86.7215 1.04444 86.5668 1.41774C86.4122 1.79104 86.3718 2.20181 86.4506 2.5981C86.5294 2.9944 86.724 3.35842 87.0097 3.64413C87.2954 3.92984 87.6594 4.12441 88.0557 4.20324C88.452 4.28207 88.8628 4.24161 89.2361 4.08699C89.6094 3.93236 89.9285 3.67051 90.1529 3.33455C90.3774 2.99859 90.4972 2.6036 90.4972 2.19954C90.4972 1.93038 90.4441 1.66387 90.3407 1.41532C90.2374 1.16677 90.086 0.941095 89.8952 0.751253C89.7044 0.56141 89.4779 0.411145 89.2288 0.309094C88.9798 0.207043 88.713 0.155216 88.4438 0.156593H88.4543ZM110.054 0.156593C109.65 0.155559 109.254 0.274497 108.918 0.49835C108.581 0.722203 108.318 1.04091 108.163 1.41411C108.008 1.78732 107.966 2.19825 108.045 2.59489C108.123 2.99153 108.317 3.35604 108.603 3.64227C108.888 3.92851 109.252 4.1236 109.648 4.20285C110.045 4.2821 110.456 4.24195 110.83 4.08748C111.203 3.93301 111.523 3.67116 111.747 3.33509C111.972 2.99901 112.092 2.60382 112.092 2.19954C112.092 1.65862 111.877 1.13978 111.495 0.756804C111.113 0.373826 110.595 0.157977 110.054 0.156593ZM131.665 0.156593C131.261 0.159688 130.868 0.282131 130.534 0.508486C130.2 0.734842 129.941 1.05498 129.788 1.42854C129.636 1.8021 129.598 2.21237 129.678 2.60763C129.759 3.00288 129.955 3.36543 130.241 3.64958C130.527 3.93373 130.892 4.12675 131.287 4.20431C131.683 4.28188 132.093 4.24052 132.466 4.08544C132.838 3.93036 133.156 3.66852 133.38 3.3329C133.604 2.99729 133.723 2.60293 133.723 2.19954C133.723 1.92994 133.67 1.66299 133.566 1.4141C133.463 1.16521 133.311 0.939301 133.119 0.74939C132.928 0.559478 132.701 0.409323 132.451 0.307581C132.201 0.20584 131.934 0.154524 131.665 0.156593ZM153.27 0.156593C152.866 0.156593 152.471 0.27641 152.135 0.500893C151.799 0.725375 151.537 1.04444 151.382 1.41774C151.228 1.79104 151.187 2.20181 151.266 2.5981C151.345 2.9944 151.539 3.35842 151.825 3.64413C152.111 3.92984 152.475 4.12441 152.871 4.20324C153.267 4.28207 153.678 4.24161 154.051 4.08699C154.425 3.93236 154.744 3.67051 154.968 3.33455C155.193 2.99859 155.313 2.6036 155.313 2.19954C155.313 1.65772 155.097 1.13809 154.714 0.75496C154.331 0.371832 153.811 0.156593 153.27 0.156593ZM174.88 0.156593C174.476 0.156593 174.081 0.27641 173.745 0.500893C173.409 0.725375 173.147 1.04444 172.993 1.41774C172.838 1.79104 172.798 2.20181 172.876 2.5981C172.955 2.9944 173.15 3.35842 173.435 3.64413C173.721 3.92984 174.085 4.12441 174.481 4.20324C174.878 4.28207 175.289 4.24161 175.662 4.08699C176.035 3.93236 176.354 3.67051 176.579 3.33455C176.803 2.99859 176.923 2.6036 176.923 2.19954C176.923 1.93126 176.87 1.6656 176.767 1.41774C176.665 1.16988 176.514 0.944665 176.325 0.75496C176.135 0.565254 175.91 0.414771 175.662 0.312104C175.414 0.209436 175.148 0.156593 174.88 0.156593ZM196.49 4.23727C196.895 4.23727 197.29 4.11732 197.626 3.89261C197.962 3.66789 198.224 3.34852 198.378 2.97491C198.533 2.60131 198.573 2.19027 198.494 1.79383C198.414 1.3974 198.219 1.03339 197.933 0.747886C197.647 0.462384 197.282 0.268225 196.886 0.189988C196.489 0.111751 196.078 0.152955 195.705 0.308382C195.332 0.46381 195.013 0.726473 194.789 1.06312C194.565 1.39977 194.446 1.79527 194.447 2.19954C194.449 2.74046 194.665 3.25875 195.048 3.64075C195.431 4.02275 195.949 4.23727 196.49 4.23727ZM2.00765 21.0564C1.60337 21.0553 1.20788 21.1743 0.871227 21.3981C0.534579 21.622 0.271915 21.9407 0.116488 22.3139C-0.0389399 22.6871 -0.0801434 23.098 -0.00190666 23.4947C0.07633 23.8913 0.270489 24.2558 0.555992 24.542C0.841495 24.8283 1.2055 25.0234 1.60194 25.1026C1.99838 25.1819 2.40941 25.1417 2.78302 24.9872C3.15662 24.8328 3.476 24.5709 3.70071 24.2348C3.92543 23.8988 4.04538 23.5036 4.04538 23.0993C4.04538 22.5584 3.83086 22.0395 3.44886 21.6566C3.06686 21.2736 2.54857 21.0577 2.00765 21.0564ZM23.618 21.0564C23.2137 21.0553 22.8182 21.1743 22.4816 21.3981C22.1449 21.622 21.8823 21.9407 21.7268 22.3139C21.5714 22.6871 21.5302 23.098 21.6084 23.4947C21.6867 23.8913 21.8808 24.2558 22.1663 24.542C22.4518 24.8283 22.8159 25.0234 23.2123 25.1026C23.6087 25.1819 24.0198 25.1417 24.3934 24.9872C24.767 24.8328 25.0863 24.5709 25.3111 24.2348C25.5358 23.8988 25.6557 23.5036 25.6557 23.0993C25.6557 22.5584 25.4412 22.0395 25.0592 21.6566C24.6772 21.2736 24.1589 21.0577 23.618 21.0564ZM45.2231 21.0564C44.8191 21.0564 44.4241 21.1762 44.0881 21.4007C43.7522 21.6251 43.4903 21.9442 43.3357 22.3175C43.1811 22.6908 43.1406 23.1016 43.2194 23.4979C43.2983 23.8942 43.4928 24.2582 43.7785 24.5439C44.0643 24.8296 44.4283 25.0242 44.8246 25.103C45.2209 25.1818 45.6316 25.1414 46.0049 24.9867C46.3782 24.8321 46.6973 24.5703 46.9218 24.2343C47.1463 23.8983 47.2661 23.5034 47.2661 23.0993C47.2661 22.5575 47.0508 22.0378 46.6677 21.6547C46.2846 21.2716 45.765 21.0564 45.2231 21.0564ZM66.8439 21.0564C66.4399 21.0564 66.0449 21.1762 65.7089 21.4007C65.373 21.6251 65.1111 21.9442 64.9565 22.3175C64.8019 22.6908 64.7614 23.1016 64.8402 23.4979C64.9191 23.8942 65.1136 24.2582 65.3993 24.5439C65.6851 24.8296 66.0491 25.0242 66.4454 25.103C66.8417 25.1818 67.2524 25.1414 67.6257 24.9867C67.999 24.8321 68.3181 24.5703 68.5426 24.2343C68.7671 23.8983 68.8869 23.5034 68.8869 23.0993C68.8869 22.5575 68.6716 22.0378 68.2885 21.6547C67.9054 21.2716 67.3857 21.0564 66.8439 21.0564ZM88.4543 21.0564C88.0502 21.0564 87.6552 21.1762 87.3193 21.4007C86.9833 21.6251 86.7215 21.9442 86.5668 22.3175C86.4122 22.6908 86.3718 23.1016 86.4506 23.4979C86.5294 23.8942 86.724 24.2582 87.0097 24.5439C87.2954 24.8296 87.6594 25.0242 88.0557 25.103C88.452 25.1818 88.8628 25.1414 89.2361 24.9867C89.6094 24.8321 89.9285 24.5703 90.1529 24.2343C90.3774 23.8983 90.4972 23.5034 90.4972 23.0993C90.4972 22.8301 90.4441 22.5636 90.3407 22.3151C90.2374 22.0665 90.086 21.8409 89.8952 21.651C89.7044 21.4612 89.4779 21.3109 89.2288 21.2089C88.9798 21.1068 88.713 21.055 88.4438 21.0564H88.4543ZM110.065 21.0564C109.66 21.0553 109.265 21.1743 108.928 21.3981C108.592 21.622 108.329 21.9407 108.173 22.3139C108.018 22.6871 107.977 23.098 108.055 23.4947C108.133 23.8913 108.327 24.2558 108.613 24.542C108.898 24.8283 109.262 25.0234 109.659 25.1026C110.055 25.1819 110.466 25.1417 110.84 24.9872C111.214 24.8328 111.533 24.5709 111.758 24.2348C111.982 23.8988 112.102 23.5036 112.102 23.0993C112.102 22.8306 112.049 22.5645 111.946 22.3163C111.843 22.0681 111.692 21.8426 111.502 21.6529C111.312 21.4631 111.086 21.3127 110.838 21.2104C110.589 21.108 110.323 21.0557 110.054 21.0564H110.065ZM131.675 21.0564C131.271 21.0553 130.875 21.1743 130.539 21.3981C130.202 21.622 129.939 21.9407 129.784 22.3139C129.628 22.6871 129.587 23.098 129.665 23.4947C129.744 23.8913 129.938 24.2558 130.223 24.542C130.509 24.8283 130.873 25.0234 131.269 25.1026C131.666 25.1819 132.077 25.1417 132.45 24.9872C132.824 24.8328 133.143 24.5709 133.368 24.2348C133.593 23.8988 133.713 23.5036 133.713 23.0993C133.713 22.8306 133.66 22.5645 133.557 22.3163C133.454 22.0681 133.303 21.8426 133.113 21.6529C132.922 21.4631 132.696 21.3127 132.448 21.2104C132.199 21.108 131.933 21.0557 131.665 21.0564H131.675ZM153.28 21.0564C152.876 21.0564 152.481 21.1762 152.145 21.4007C151.809 21.6251 151.547 21.9442 151.393 22.3175C151.238 22.6908 151.198 23.1016 151.276 23.4979C151.355 23.8942 151.55 24.2582 151.836 24.5439C152.121 24.8296 152.485 25.0242 152.882 25.103C153.278 25.1818 153.689 25.1414 154.062 24.9867C154.435 24.8321 154.754 24.5703 154.979 24.2343C155.203 23.8983 155.323 23.5034 155.323 23.0993C155.323 22.8301 155.27 22.5636 155.167 22.3151C155.063 22.0665 154.912 21.8409 154.721 21.651C154.53 21.4612 154.304 21.3109 154.055 21.2089C153.806 21.1068 153.539 21.055 153.27 21.0564H153.28ZM174.89 21.0564C174.486 21.0564 174.091 21.1762 173.755 21.4007C173.42 21.6251 173.158 21.9442 173.003 22.3175C172.848 22.6908 172.808 23.1016 172.887 23.4979C172.966 23.8942 173.16 24.2582 173.446 24.5439C173.732 24.8296 174.096 25.0242 174.492 25.103C174.888 25.1818 175.299 25.1414 175.672 24.9867C176.046 24.8321 176.365 24.5703 176.589 24.2343C176.814 23.8983 176.933 23.5034 176.933 23.0993C176.933 22.8301 176.88 22.5636 176.777 22.3151C176.674 22.0665 176.522 21.8409 176.331 21.651C176.141 21.4612 175.914 21.3109 175.665 21.2089C175.416 21.1068 175.149 21.055 174.88 21.0564H174.89ZM196.501 21.0564C196.096 21.0501 195.698 21.1644 195.359 21.3846C195.019 21.6048 194.752 21.9211 194.592 22.2932C194.432 22.6653 194.387 23.0764 194.461 23.4745C194.536 23.8725 194.727 24.2395 195.01 24.5287C195.294 24.818 195.656 25.0165 196.053 25.0991C196.449 25.1817 196.861 25.1446 197.237 24.9925C197.612 24.8405 197.934 24.5803 198.161 24.2451C198.388 23.9099 198.51 23.5147 198.512 23.1098C198.515 22.5697 198.304 22.0506 197.925 21.6658C197.546 21.281 197.03 21.0619 196.49 21.0564H196.501ZM2.00765 41.9822C1.60427 41.9812 1.20961 42.0997 0.873432 42.3226C0.537254 42.5455 0.2746 42.863 0.118579 43.235C-0.0374424 43.607 -0.0798467 44.0169 -0.00328896 44.4129C0.0732687 44.809 0.265362 45.1735 0.548776 45.4605C0.83219 45.7476 1.19424 45.9443 1.58929 46.0259C1.98433 46.1075 2.39469 46.0703 2.76864 45.9191C3.14259 45.7678 3.46339 45.5092 3.69059 45.1759C3.9178 44.8426 4.04125 44.4495 4.04538 44.0461C4.04814 43.7765 3.9975 43.509 3.8964 43.2591C3.79529 43.0091 3.64572 42.7817 3.45629 42.5898C3.26686 42.398 3.04133 42.2455 2.7927 42.1412C2.54407 42.0369 2.27726 41.9829 2.00765 41.9822ZM23.618 41.9822C23.2135 41.9812 22.8178 42.1003 22.481 42.3244C22.1443 42.5484 21.8816 42.8675 21.7263 43.241C21.5711 43.6145 21.5302 44.0257 21.6088 44.4225C21.6875 44.8192 21.8822 45.1837 22.1682 45.4698C22.4542 45.7558 22.8187 45.9505 23.2155 46.0291C23.6123 46.1078 24.0235 46.0669 24.397 45.9116C24.7705 45.7564 25.0895 45.4937 25.3136 45.1569C25.5377 44.8202 25.6568 44.4245 25.6557 44.02C25.6543 43.4799 25.4392 42.9624 25.0574 42.5806C24.6755 42.1987 24.158 41.9836 23.618 41.9822ZM45.2231 41.9822C44.82 41.9823 44.4258 42.1016 44.0903 42.3251C43.7548 42.5487 43.493 42.8666 43.3378 43.2386C43.1825 43.6107 43.1409 44.0204 43.218 44.4161C43.2952 44.8118 43.4877 45.1759 43.7713 45.4624C44.0549 45.7489 44.417 45.9451 44.8119 46.0263C45.2068 46.1075 45.6169 46.07 45.9906 45.9186C46.3642 45.7671 46.6847 45.5085 46.9117 45.1753C47.1386 44.8421 47.262 44.4492 47.2661 44.0461C47.2688 43.7761 47.218 43.5081 47.1166 43.2579C47.0152 43.0076 46.8651 42.7799 46.6752 42.588C46.4852 42.3961 46.259 42.2437 46.0098 42.1397C45.7606 42.0358 45.4932 41.9822 45.2231 41.9822ZM66.8335 41.9822C66.4292 41.9822 66.034 42.1022 65.6979 42.3269C65.3619 42.5516 65.1 42.871 64.9455 43.2446C64.7911 43.6182 64.7509 44.0292 64.8302 44.4257C64.9094 44.8221 65.1045 45.1861 65.3908 45.4716C65.677 45.7571 66.0415 45.9513 66.4381 46.0295C66.8348 46.1078 67.2457 46.0666 67.6189 45.9111C67.9921 45.7557 68.3108 45.493 68.5347 45.1564C68.7585 44.8197 68.8775 44.4242 68.8764 44.02C68.8751 43.4809 68.6607 42.9641 68.2799 42.5824C67.8992 42.2007 67.383 41.985 66.8439 41.9822H66.8335ZM88.4438 41.9822C88.0396 41.9822 87.6444 42.1022 87.3083 42.3269C86.9722 42.5516 86.7104 42.871 86.5559 43.2446C86.4014 43.6182 86.3613 44.0292 86.4405 44.4257C86.5198 44.8221 86.7149 45.1861 87.0011 45.4716C87.2873 45.7571 87.6518 45.9513 88.0485 46.0295C88.4451 46.1078 88.8561 46.0666 89.2293 45.9111C89.6025 45.7557 89.9212 45.493 90.145 45.1564C90.3689 44.8197 90.4878 44.4242 90.4868 44.02C90.4854 43.479 90.2695 42.9608 89.8866 42.5788C89.5036 42.1968 88.9847 41.9822 88.4438 41.9822ZM110.054 41.9822C109.65 41.9812 109.254 42.1003 108.917 42.3244C108.58 42.5484 108.318 42.8675 108.163 43.241C108.007 43.6145 107.966 44.0257 108.045 44.4225C108.124 44.8192 108.318 45.1837 108.604 45.4698C108.89 45.7558 109.255 45.9505 109.652 46.0291C110.048 46.1078 110.46 46.0669 110.833 45.9116C111.207 45.7564 111.526 45.4937 111.75 45.1569C111.974 44.8202 112.093 44.4245 112.092 44.02C112.091 43.4799 111.875 42.9624 111.494 42.5806C111.112 42.1987 110.594 41.9836 110.054 41.9822ZM131.665 41.9822C131.262 41.9854 130.869 42.1073 130.536 42.3327C130.203 42.5582 129.943 42.8771 129.79 43.2494C129.638 43.6218 129.598 44.031 129.677 44.4257C129.756 44.8203 129.95 45.1829 130.234 45.4679C130.518 45.7528 130.88 45.9475 131.275 46.0274C131.669 46.1073 132.078 46.0689 132.451 45.917C132.824 45.7652 133.144 45.5066 133.37 45.1737C133.596 44.8408 133.719 44.4486 133.723 44.0461C133.726 43.7747 133.675 43.5055 133.572 43.2542C133.47 43.0029 133.318 42.7745 133.127 42.5824C132.935 42.3902 132.707 42.2382 132.456 42.1352C132.205 42.0321 131.936 41.9801 131.665 41.9822ZM153.27 41.9822C152.865 41.9822 152.47 42.1022 152.134 42.3269C151.798 42.5516 151.536 42.871 151.382 43.2446C151.227 43.6182 151.187 44.0292 151.266 44.4257C151.346 44.8221 151.541 45.1861 151.827 45.4716C152.113 45.7571 152.478 45.9513 152.874 46.0295C153.271 46.1078 153.682 46.0666 154.055 45.9111C154.428 45.7557 154.747 45.493 154.971 45.1564C155.195 44.8197 155.314 44.4242 155.313 44.02C155.311 43.479 155.095 42.9608 154.712 42.5788C154.329 42.1968 153.811 41.9822 153.27 41.9822ZM174.88 41.9822C174.476 41.9822 174.081 42.1022 173.744 42.3269C173.408 42.5516 173.147 42.871 172.992 43.2446C172.838 43.6182 172.797 44.0292 172.877 44.4257C172.956 44.8221 173.151 45.1861 173.437 45.4716C173.724 45.7571 174.088 45.9513 174.485 46.0295C174.881 46.1078 175.292 46.0666 175.665 45.9111C176.039 45.7557 176.357 45.493 176.581 45.1564C176.805 44.8197 176.924 44.4242 176.923 44.02C176.922 43.479 176.706 42.9608 176.323 42.5788C175.94 42.1968 175.421 41.9822 174.88 41.9822ZM196.49 41.9822C196.086 41.9781 195.69 42.0939 195.352 42.315C195.014 42.536 194.749 42.8524 194.59 43.2241C194.432 43.5958 194.387 44.0061 194.462 44.4032C194.537 44.8002 194.728 45.1662 195.01 45.4548C195.293 45.7434 195.655 45.9417 196.051 46.0246C196.446 46.1075 196.857 46.0712 197.232 45.9204C197.607 45.7697 197.929 45.5111 198.156 45.1775C198.384 44.8438 198.508 44.4501 198.512 44.0461C198.515 43.7778 198.465 43.5116 198.365 43.2627C198.265 43.0138 198.117 42.787 197.929 42.5954C197.741 42.4037 197.517 42.2509 197.271 42.1457C197.024 42.0405 196.759 41.985 196.49 41.9822ZM2.00765 62.882C1.60427 62.881 1.20961 62.9994 0.873432 63.2224C0.537254 63.4453 0.2746 63.7628 0.118579 64.1348C-0.0374424 64.5068 -0.0798467 64.9166 -0.00328896 65.3127C0.0732687 65.7087 0.265362 66.0732 0.548776 66.3603C0.83219 66.6473 1.19424 66.8441 1.58929 66.9257C1.98433 67.0073 2.39469 66.9701 2.76864 66.8188C3.14259 66.6675 3.46339 66.409 3.69059 66.0756C3.9178 65.7423 4.04125 65.3492 4.04538 64.9459C4.04675 64.6771 3.9951 64.4108 3.89337 64.162C3.79165 63.9133 3.64185 63.6871 3.45256 63.4964C3.26327 63.3056 3.03821 63.1541 2.79027 63.0505C2.54233 62.9468 2.27638 62.8931 2.00765 62.8924V62.882ZM23.618 62.882C23.2137 62.881 22.8182 62.9999 22.4816 63.2238C22.1449 63.4476 21.8823 63.7663 21.7268 64.1395C21.5714 64.5127 21.5302 64.9237 21.6084 65.3203C21.6867 65.7169 21.8808 66.0814 22.1663 66.3677C22.4518 66.6539 22.8159 66.849 23.2123 66.9283C23.6087 67.0075 24.0198 66.9674 24.3934 66.8129C24.767 66.6584 25.0863 66.3966 25.3111 66.0605C25.5358 65.7244 25.6557 65.3292 25.6557 64.9249C25.653 64.3858 25.4372 63.8697 25.0555 63.489C24.6738 63.1082 24.1571 62.8938 23.618 62.8924V62.882ZM45.2231 62.882C44.82 62.882 44.4258 63.0013 44.0903 63.2249C43.7548 63.4485 43.493 63.7663 43.3378 64.1384C43.1825 64.5105 43.1409 64.9202 43.218 65.3159C43.2952 65.7116 43.4877 66.0756 43.7713 66.3622C44.0549 66.6487 44.417 66.8449 44.8119 66.9261C45.2068 67.0072 45.6169 66.9697 45.9906 66.8183C46.3642 66.6669 46.6847 66.4083 46.9117 66.0751C47.1386 65.7419 47.262 65.349 47.2661 64.9459C47.2675 64.6767 47.2156 64.4099 47.1136 64.1608C47.0115 63.9118 46.8613 63.6853 46.6714 63.4945C46.4816 63.3037 46.2559 63.1523 46.0074 63.049C45.7588 62.9456 45.4923 62.8924 45.2231 62.8924V62.882ZM66.8335 62.882C66.4294 62.882 66.0344 63.0018 65.6985 63.2263C65.3625 63.4508 65.1007 63.7698 64.946 64.1431C64.7914 64.5164 64.751 64.9272 64.8298 65.3235C64.9086 65.7198 65.1032 66.0838 65.3889 66.3695C65.6746 66.6553 66.0386 66.8498 66.4349 66.9286C66.8312 67.0075 67.242 66.967 67.6153 66.8124C67.9886 66.6578 68.3076 66.3959 68.5321 66.06C68.7566 65.724 68.8764 65.329 68.8764 64.9249C68.8737 64.3867 68.6587 63.8714 68.2781 63.4908C67.8975 63.1102 67.3821 62.8952 66.8439 62.8924L66.8335 62.882ZM88.4438 62.882C88.0398 62.882 87.6448 63.0018 87.3088 63.2263C86.9729 63.4508 86.711 63.7698 86.5564 64.1431C86.4018 64.5164 86.3613 64.9272 86.4401 65.3235C86.519 65.7198 86.7135 66.0838 86.9992 66.3695C87.285 66.6553 87.649 66.8498 88.0453 66.9286C88.4416 67.0075 88.8523 66.967 89.2256 66.8124C89.5989 66.6578 89.918 66.3959 90.1425 66.06C90.367 65.724 90.4868 65.329 90.4868 64.9249C90.484 64.3849 90.2676 63.868 89.8847 63.4871C89.5019 63.1062 88.9838 62.8924 88.4438 62.8924V62.882ZM110.054 62.882C109.65 62.881 109.254 62.9999 108.918 63.2238C108.581 63.4476 108.318 63.7663 108.163 64.1395C108.008 64.5127 107.966 64.9237 108.045 65.3203C108.123 65.7169 108.317 66.0814 108.603 66.3677C108.888 66.6539 109.252 66.849 109.648 66.9283C110.045 67.0075 110.456 66.9674 110.83 66.8129C111.203 66.6584 111.523 66.3966 111.747 66.0605C111.972 65.7244 112.092 65.3292 112.092 64.9249C112.089 64.3858 111.873 63.8697 111.492 63.489C111.11 63.1082 110.593 62.8938 110.054 62.8924V62.882ZM131.665 62.882C131.262 62.8851 130.869 63.007 130.536 63.2325C130.203 63.4579 129.943 63.7768 129.79 64.1492C129.638 64.5215 129.598 64.9307 129.677 65.3254C129.756 65.7201 129.95 66.0827 130.234 66.3676C130.518 66.6526 130.88 66.8473 131.275 66.9272C131.669 67.0071 132.078 66.9687 132.451 66.8168C132.824 66.6649 133.144 66.4063 133.37 66.0735C133.596 65.7406 133.719 65.3483 133.723 64.9459C133.725 64.6754 133.672 64.4073 133.569 64.1572C133.466 63.9071 133.314 63.6799 133.123 63.4889C132.931 63.2979 132.704 63.1468 132.454 63.0444C132.203 62.942 131.935 62.8904 131.665 62.8924V62.882ZM153.27 62.882C152.866 62.882 152.471 63.0018 152.135 63.2263C151.799 63.4508 151.537 63.7698 151.382 64.1431C151.228 64.5164 151.187 64.9272 151.266 65.3235C151.345 65.7198 151.539 66.0838 151.825 66.3695C152.111 66.6553 152.475 66.8498 152.871 66.9286C153.267 67.0075 153.678 66.967 154.051 66.8124C154.425 66.6578 154.744 66.3959 154.968 66.06C155.193 65.724 155.313 65.329 155.313 64.9249C155.31 64.3849 155.093 63.868 154.711 63.4871C154.328 63.1062 153.81 62.8924 153.27 62.8924V62.882ZM174.88 62.882C174.476 62.882 174.081 63.0018 173.745 63.2263C173.409 63.4508 173.147 63.7698 172.993 64.1431C172.838 64.5164 172.798 64.9272 172.876 65.3235C172.955 65.7198 173.15 66.0838 173.435 66.3695C173.721 66.6553 174.085 66.8498 174.481 66.9286C174.878 67.0075 175.289 66.967 175.662 66.8124C176.035 66.6578 176.354 66.3959 176.579 66.06C176.803 65.724 176.923 65.329 176.923 64.9249C176.92 64.3849 176.704 63.868 176.321 63.4871C175.938 63.1062 175.42 62.8924 174.88 62.8924V62.882ZM196.49 62.882C196.086 62.8779 195.69 62.9937 195.352 63.2147C195.014 63.4358 194.749 63.7521 194.59 64.1238C194.432 64.4955 194.387 64.9058 194.462 65.3029C194.537 65.7 194.728 66.066 195.01 66.3546C195.293 66.6432 195.655 66.8415 196.051 66.9244C196.446 67.0072 196.857 66.971 197.232 66.8202C197.607 66.6694 197.929 66.4109 198.156 66.0772C198.384 65.7436 198.508 65.3499 198.512 64.9459C198.515 64.4058 198.304 63.8867 197.925 63.5019C197.546 63.1171 197.03 62.898 196.49 62.8924V62.882ZM2.00765 83.8079C1.60315 83.8069 1.20745 83.9259 0.870685 84.15C0.533924 84.3741 0.271264 84.6931 0.115991 85.0666C-0.0392827 85.4401 -0.0801802 85.8513 -0.00151909 86.2481C0.077142 86.6449 0.271821 87.0094 0.557847 87.2954C0.843873 87.5814 1.20837 87.7761 1.60515 87.8548C2.00193 87.9334 2.41313 87.8925 2.78665 87.7373C3.16016 87.582 3.47917 87.3193 3.70326 86.9826C3.92734 86.6458 4.04641 86.2501 4.04538 85.8456C4.044 85.3056 3.82887 84.7881 3.44702 84.4062C3.06517 84.0244 2.54766 83.8093 2.00765 83.8079ZM23.618 83.8079C23.2135 83.8069 22.8178 83.9259 22.481 84.15C22.1443 84.3741 21.8816 84.6931 21.7263 85.0666C21.5711 85.4401 21.5302 85.8513 21.6088 86.2481C21.6875 86.6449 21.8822 87.0094 22.1682 87.2954C22.4542 87.5814 22.8187 87.7761 23.2155 87.8548C23.6123 87.9334 24.0235 87.8925 24.397 87.7373C24.7705 87.582 25.0895 87.3193 25.3136 86.9826C25.5377 86.6458 25.6568 86.2501 25.6557 85.8456C25.6543 85.3056 25.4392 84.7881 25.0574 84.4062C24.6755 84.0244 24.158 83.8093 23.618 83.8079ZM45.2231 83.8079C44.8189 83.8079 44.4237 83.9278 44.0876 84.1525C43.7515 84.3773 43.4897 84.6966 43.3352 85.0702C43.1807 85.4438 43.1406 85.8549 43.2198 86.2513C43.2991 86.6478 43.4942 87.0118 43.7804 87.2973C44.0666 87.5828 44.4311 87.7769 44.8278 87.8552C45.2244 87.9334 45.6354 87.8922 46.0086 87.7368C46.3818 87.5813 46.7005 87.3187 46.9243 86.982C47.1482 86.6454 47.2671 86.2499 47.2661 85.8456C47.2647 85.3047 47.0488 84.7864 46.6659 84.4044C46.2829 84.0224 45.7641 83.8079 45.2231 83.8079ZM66.8335 83.8079C66.4292 83.8079 66.034 83.9278 65.6979 84.1525C65.3619 84.3773 65.1 84.6966 64.9455 85.0702C64.7911 85.4438 64.7509 85.8549 64.8302 86.2513C64.9094 86.6478 65.1045 87.0118 65.3908 87.2973C65.677 87.5828 66.0415 87.7769 66.4381 87.8552C66.8348 87.9334 67.2457 87.8922 67.6189 87.7368C67.9921 87.5813 68.3108 87.3187 68.5347 86.982C68.7585 86.6454 68.8775 86.2499 68.8764 85.8456C68.8751 85.3065 68.6607 84.7898 68.2799 84.4081C67.8992 84.0264 67.383 83.8106 66.8439 83.8079H66.8335ZM88.4438 83.8079C88.0396 83.8079 87.6444 83.9278 87.3083 84.1525C86.9722 84.3773 86.7104 84.6966 86.5559 85.0702C86.4014 85.4438 86.3613 85.8549 86.4405 86.2513C86.5198 86.6478 86.7149 87.0118 87.0011 87.2973C87.2873 87.5828 87.6518 87.7769 88.0485 87.8552C88.4451 87.9334 88.8561 87.8922 89.2293 87.7368C89.6025 87.5813 89.9212 87.3187 90.145 86.982C90.3689 86.6454 90.4878 86.2499 90.4868 85.8456C90.4854 85.3047 90.2695 84.7864 89.8866 84.4044C89.5036 84.0224 88.9847 83.8079 88.4438 83.8079ZM110.054 83.8079C109.65 83.8069 109.254 83.9259 108.917 84.15C108.58 84.3741 108.318 84.6931 108.163 85.0666C108.007 85.4401 107.966 85.8513 108.045 86.2481C108.124 86.6449 108.318 87.0094 108.604 87.2954C108.89 87.5814 109.255 87.7761 109.652 87.8548C110.048 87.9334 110.46 87.8925 110.833 87.7373C111.207 87.582 111.526 87.3193 111.75 86.9826C111.974 86.6458 112.093 86.2501 112.092 85.8456C112.091 85.3056 111.875 84.7881 111.494 84.4062C111.112 84.0244 110.594 83.8093 110.054 83.8079ZM131.665 83.8079C131.261 83.811 130.867 83.9336 130.533 84.1601C130.199 84.3867 129.94 84.7072 129.788 85.081C129.636 85.4549 129.598 85.8654 129.679 86.2608C129.76 86.6562 129.956 87.0188 130.243 87.3027C130.53 87.5866 130.894 87.7793 131.291 87.8562C131.687 87.9332 132.097 87.8911 132.469 87.7352C132.842 87.5793 133.159 87.3167 133.382 86.9804C133.606 86.6441 133.724 86.2492 133.723 85.8456C133.722 85.5764 133.669 85.3101 133.565 85.0618C133.461 84.8135 133.309 84.5882 133.117 84.3988C132.926 84.2095 132.699 84.0598 132.45 83.9584C132.201 83.857 131.934 83.8058 131.665 83.8079ZM153.27 83.8079C152.865 83.8079 152.47 83.9278 152.134 84.1525C151.798 84.3773 151.536 84.6966 151.382 85.0702C151.227 85.4438 151.187 85.8549 151.266 86.2513C151.346 86.6478 151.541 87.0118 151.827 87.2973C152.113 87.5828 152.478 87.7769 152.874 87.8552C153.271 87.9334 153.682 87.8922 154.055 87.7368C154.428 87.5813 154.747 87.3187 154.971 86.982C155.195 86.6454 155.314 86.2499 155.313 85.8456C155.311 85.3047 155.095 84.7864 154.712 84.4044C154.329 84.0224 153.811 83.8079 153.27 83.8079ZM174.88 83.8079C174.476 83.8079 174.081 83.9278 173.744 84.1525C173.408 84.3773 173.147 84.6966 172.992 85.0702C172.838 85.4438 172.797 85.8549 172.877 86.2513C172.956 86.6478 173.151 87.0118 173.437 87.2973C173.724 87.5828 174.088 87.7769 174.485 87.8552C174.881 87.9334 175.292 87.8922 175.665 87.7368C176.039 87.5813 176.357 87.3187 176.581 86.982C176.805 86.6454 176.924 86.2499 176.923 85.8456C176.922 85.3047 176.706 84.7864 176.323 84.4044C175.94 84.0224 175.421 83.8079 174.88 83.8079ZM196.49 83.8079C196.085 83.8037 195.688 83.9202 195.349 84.1423C195.01 84.3645 194.745 84.6824 194.588 85.0556C194.43 85.4289 194.387 85.8406 194.464 86.2384C194.541 86.6362 194.734 87.0021 195.019 87.2897C195.305 87.5773 195.669 87.7736 196.066 87.8535C196.464 87.9335 196.876 87.8935 197.25 87.7387C197.624 87.5839 197.944 87.3213 198.169 86.9842C198.394 86.6471 198.513 86.2508 198.512 85.8456C198.511 85.3083 198.298 84.7931 197.92 84.4117C197.541 84.0303 197.028 83.8134 196.49 83.8079ZM2.00765 104.708C1.60315 104.707 1.20745 104.826 0.870685 105.05C0.533924 105.274 0.271264 105.593 0.115991 105.966C-0.0392827 106.34 -0.0801802 106.751 -0.00151909 107.148C0.077142 107.545 0.271821 107.909 0.557847 108.195C0.843873 108.481 1.20837 108.676 1.60515 108.755C2.00193 108.833 2.41313 108.792 2.78665 108.637C3.16016 108.482 3.47917 108.219 3.70326 107.882C3.92734 107.546 4.04641 107.15 4.04538 106.745C4.04125 106.207 3.8249 105.692 3.44335 105.313C3.0618 104.933 2.54586 104.719 2.00765 104.718V104.708ZM23.618 104.708C23.2137 104.707 22.8182 104.826 22.4816 105.049C22.1449 105.273 21.8823 105.592 21.7268 105.965C21.5714 106.338 21.5302 106.749 21.6084 107.146C21.6867 107.543 21.8808 107.907 22.1663 108.193C22.4518 108.48 22.8159 108.675 23.2123 108.754C23.6087 108.833 24.0198 108.793 24.3934 108.639C24.767 108.484 25.0863 108.222 25.3111 107.886C25.5358 107.55 25.6557 107.155 25.6557 106.751C25.653 106.211 25.4372 105.695 25.0555 105.315C24.6738 104.934 24.1571 104.719 23.618 104.718V104.708ZM45.2231 104.708C44.8189 104.708 44.4237 104.828 44.0876 105.052C43.7515 105.277 43.4897 105.596 43.3352 105.97C43.1807 106.344 43.1406 106.755 43.2198 107.151C43.2991 107.548 43.4942 107.912 43.7804 108.197C44.0666 108.483 44.4311 108.677 44.8278 108.755C45.2244 108.833 45.6354 108.792 46.0086 108.637C46.3818 108.481 46.7005 108.218 46.9243 107.882C47.1482 107.545 47.2671 107.15 47.2661 106.745C47.2619 106.206 47.0449 105.691 46.6622 105.311C46.2795 104.931 45.7623 104.718 45.2231 104.718V104.708ZM66.8335 104.708C66.4294 104.708 66.0344 104.827 65.6985 105.052C65.3625 105.276 65.1007 105.595 64.946 105.969C64.7914 106.342 64.751 106.753 64.8298 107.149C64.9086 107.545 65.1032 107.909 65.3889 108.195C65.6746 108.481 66.0386 108.675 66.4349 108.754C66.8312 108.833 67.242 108.793 67.6153 108.638C67.9886 108.483 68.3076 108.222 68.5321 107.886C68.7566 107.55 68.8764 107.155 68.8764 106.751C68.8737 106.212 68.6587 105.697 68.2781 105.316C67.8975 104.936 67.3821 104.721 66.8439 104.718L66.8335 104.708ZM88.4438 104.708C88.0398 104.708 87.6448 104.827 87.3088 105.052C86.9729 105.276 86.711 105.595 86.5564 105.969C86.4018 106.342 86.3613 106.753 86.4401 107.149C86.519 107.545 86.7135 107.909 86.9992 108.195C87.285 108.481 87.649 108.675 88.0453 108.754C88.4416 108.833 88.8523 108.793 89.2256 108.638C89.5989 108.483 89.918 108.222 90.1425 107.886C90.367 107.55 90.4868 107.155 90.4868 106.751C90.484 106.211 90.2676 105.694 89.8847 105.313C89.5019 104.932 88.9838 104.718 88.4438 104.718V104.708ZM110.054 104.708C109.65 104.707 109.254 104.826 108.918 105.049C108.581 105.273 108.318 105.592 108.163 105.965C108.008 106.338 107.966 106.749 108.045 107.146C108.123 107.543 108.317 107.907 108.603 108.193C108.888 108.48 109.252 108.675 109.648 108.754C110.045 108.833 110.456 108.793 110.83 108.639C111.203 108.484 111.523 108.222 111.747 107.886C111.972 107.55 112.092 107.155 112.092 106.751C112.089 106.211 111.873 105.695 111.492 105.315C111.11 104.934 110.593 104.719 110.054 104.718V104.708ZM131.665 104.708C131.261 104.711 130.867 104.833 130.533 105.06C130.199 105.286 129.94 105.607 129.788 105.981C129.636 106.355 129.598 106.765 129.679 107.161C129.76 107.556 129.956 107.919 130.243 108.202C130.53 108.486 130.894 108.679 131.291 108.756C131.687 108.833 132.097 108.791 132.469 108.635C132.842 108.479 133.159 108.216 133.382 107.88C133.606 107.544 133.724 107.149 133.723 106.745C133.721 106.477 133.666 106.212 133.562 105.965C133.457 105.718 133.305 105.494 133.114 105.305C132.923 105.117 132.696 104.968 132.448 104.868C132.199 104.767 131.933 104.716 131.665 104.718V104.708ZM153.27 104.708C152.866 104.708 152.471 104.827 152.135 105.052C151.799 105.276 151.537 105.595 151.382 105.969C151.228 106.342 151.187 106.753 151.266 107.149C151.345 107.545 151.539 107.909 151.825 108.195C152.111 108.481 152.475 108.675 152.871 108.754C153.267 108.833 153.678 108.793 154.051 108.638C154.425 108.483 154.744 108.222 154.968 107.886C155.193 107.55 155.313 107.155 155.313 106.751C155.31 106.211 155.093 105.694 154.711 105.313C154.328 104.932 153.81 104.718 153.27 104.718V104.708ZM174.88 104.708C174.476 104.708 174.081 104.827 173.745 105.052C173.409 105.276 173.147 105.595 172.993 105.969C172.838 106.342 172.798 106.753 172.876 107.149C172.955 107.545 173.15 107.909 173.435 108.195C173.721 108.481 174.085 108.675 174.481 108.754C174.878 108.833 175.289 108.793 175.662 108.638C176.035 108.483 176.354 108.222 176.579 107.886C176.803 107.55 176.923 107.155 176.923 106.751C176.92 106.211 176.704 105.694 176.321 105.313C175.938 104.932 175.42 104.718 174.88 104.718V104.708ZM196.49 104.708C196.085 104.703 195.688 104.82 195.349 105.042C195.01 105.264 194.745 105.582 194.588 105.955C194.43 106.329 194.387 106.74 194.464 107.138C194.541 107.536 194.734 107.902 195.019 108.189C195.305 108.477 195.669 108.673 196.066 108.753C196.464 108.833 196.876 108.793 197.25 108.638C197.624 108.484 197.944 108.221 198.169 107.884C198.394 107.547 198.513 107.151 198.512 106.745C198.508 106.21 198.294 105.697 197.916 105.318C197.538 104.939 197.026 104.724 196.49 104.718V104.708Z" fill="black"/>
</g>
</g>
</g>
</g>
<defs>
<clipPath id="clip0_585_683">
<rect width="198.53" height="108.94" fill="white"/>
</clipPath>
<clipPath id="clip1_585_683">
<rect width="198.53" height="108.94" fill="white"/>
</clipPath>
<clipPath id="clip2_585_683">
<rect width="198.53" height="108.94" fill="white"/>
</clipPath>
<clipPath id="clip3_585_683">
<rect width="198.913" height="108.94" fill="white" transform="translate(-0.191895)"/>
</clipPath>
</defs>
</svg>
