<svg width="28" height="27" viewBox="0 0 28 27" fill="none" xmlns="http://www.w3.org/2000/svg">
<path fill-rule="evenodd" clip-rule="evenodd" d="M6.49966 0.875C6.79803 0.875 7.08418 0.993526 7.29516 1.2045C7.50613 1.41548 7.62466 1.70163 7.62466 2V4.502C11.8663 4.12496 16.133 4.12496 20.3747 4.502V2C20.3747 1.70163 20.4932 1.41548 20.7042 1.2045C20.9151 0.993526 21.2013 0.875 21.4997 0.875C21.798 0.875 22.0842 0.993526 22.2952 1.2045C22.5061 1.41548 22.6247 1.70163 22.6247 2V4.724C23.719 4.87918 24.7324 5.38823 25.5103 6.17341C26.2882 6.9586 26.7877 7.97678 26.9327 9.0725L27.0632 10.052C27.6092 14.171 27.5612 18.347 26.9222 22.454C26.7681 23.4427 26.29 24.3522 25.5629 25.0397C24.8358 25.7271 23.9009 26.1536 22.9052 26.252L21.1157 26.429C16.3831 26.8951 11.6162 26.8951 6.88366 26.429L5.09416 26.252C4.09839 26.1536 3.16352 25.7271 2.43643 25.0397C1.70934 24.3522 1.23121 23.4427 1.07716 22.454C0.43803 18.348 0.390547 14.1715 0.93616 10.052L1.06666 9.0725C1.2116 7.97678 1.71114 6.9586 2.48901 6.17341C3.26688 5.38823 4.28035 4.87918 5.37466 4.724V2C5.37466 1.70163 5.49319 1.41548 5.70417 1.2045C5.91514 0.993526 6.20129 0.875 6.49966 0.875ZM7.16716 6.8045C11.7122 6.356 16.2872 6.356 20.8322 6.8045L22.1897 6.9395C23.4902 7.067 24.5297 8.0735 24.7022 9.368L24.8327 10.3475C24.8777 10.6895 24.9187 11.032 24.9557 11.375H3.04366C3.08066 11.032 3.12166 10.6895 3.16666 10.3475L3.29716 9.368C3.38041 8.73891 3.67395 8.15646 4.13009 7.7153C4.58622 7.27414 5.17814 7.0002 5.80966 6.938L7.16716 6.8045ZM2.86516 13.625C2.7179 16.4599 2.86367 19.3025 3.30016 22.1075C3.37747 22.6033 3.61726 23.0595 3.98187 23.4042C4.34649 23.749 4.81528 23.963 5.31466 24.0125L7.10416 24.1895C11.6897 24.6425 16.3097 24.6425 20.8952 24.1895L22.6847 24.0125C23.184 23.963 23.6528 23.749 24.0174 23.4042C24.3821 23.0595 24.6218 22.6033 24.6992 22.1075C25.1372 19.2995 25.2812 16.457 25.1342 13.625H2.86516Z" fill="#333333"/>
</svg>
