<svg width="18" height="18" viewBox="0 0 18 18" fill="none" xmlns="http://www.w3.org/2000/svg">
<path d="M9.46158 12.7551C9.34316 12.8846 9.17583 12.9583 9.00033 12.9583C8.82483 12.9583 8.6575 12.8846 8.53908 12.7551L5.20573 9.10925C4.97281 8.8545 4.99051 8.45917 5.24526 8.22625C5.50002 7.99333 5.89535 8.011 6.12826 8.26575L8.37533 10.7235V1.5C8.37533 1.15483 8.65516 0.875 9.00033 0.875C9.3455 0.875 9.62533 1.15483 9.62533 1.5V10.7235L11.8724 8.26575C12.1053 8.011 12.5007 7.99333 12.7554 8.22625C13.0102 8.45917 13.0278 8.8545 12.7949 9.10925L9.46158 12.7551Z" fill="#1D2024"/>
<path d="M2.125 11.5C2.125 11.1548 1.84518 10.875 1.5 10.875C1.15483 10.875 0.875 11.1548 0.875 11.5V11.5458C0.874984 12.6854 0.874967 13.604 0.9721 14.3265C1.07295 15.0766 1.28869 15.7081 1.79029 16.2097C2.29189 16.7113 2.92345 16.9271 3.67354 17.0279C4.39602 17.125 5.31462 17.125 6.45428 17.125H11.5458C12.6854 17.125 13.604 17.125 14.3265 17.0279C15.0766 16.9271 15.7081 16.7113 16.2097 16.2097C16.7113 15.7081 16.9271 15.0766 17.0279 14.3265C17.125 13.604 17.125 12.6854 17.125 11.5458V11.5C17.125 11.1548 16.8452 10.875 16.5 10.875C16.1548 10.875 15.875 11.1548 15.875 11.5C15.875 12.6962 15.8737 13.5304 15.7891 14.1599C15.7068 14.7714 15.5565 15.0952 15.3258 15.3258C15.0952 15.5565 14.7714 15.7068 14.1599 15.7891C13.5304 15.8737 12.6962 15.875 11.5 15.875H6.5C5.30383 15.875 4.46956 15.8737 3.8401 15.7891C3.22863 15.7068 2.90481 15.5565 2.67418 15.3258C2.44354 15.0952 2.29317 14.7714 2.21096 14.1599C2.12633 13.5304 2.125 12.6962 2.125 11.5Z" fill="#1D2024"/>
</svg>
