<svg width="16" height="17" viewBox="0 0 16 17" fill="none" xmlns="http://www.w3.org/2000/svg">
<path fill-rule="evenodd" clip-rule="evenodd" d="M12.7204 1.16498L14.6974 2.77399C14.8883 2.95999 14.9953 3.21564 14.9937 3.48214C14.9921 3.74865 14.8823 4.00306 14.6892 4.18684L13.1869 6.01642L8.07428 12.2543C7.98575 12.3586 7.86662 12.4321 7.73378 12.4647L5.08294 13.0745C4.73119 13.0891 4.42786 12.8297 4.3877 12.4799L4.5117 9.86463C4.52089 9.73107 4.57374 9.60432 4.66213 9.5038L9.55421 3.54242L11.2771 1.44043C11.6118 0.984805 12.2415 0.864652 12.7204 1.16498Z" stroke="#3A3A3A" stroke-width="1.5" stroke-linecap="round" stroke-linejoin="round"/>
<path d="M0.762326 15.4754C0.341309 15.4754 0 15.8167 0 16.2377C0 16.6588 0.341309 17 0.762326 17V15.4754ZM14.6875 17C15.1085 17 15.4498 16.6588 15.4498 16.2377C15.4498 15.8167 15.1085 15.4754 14.6875 15.4754V17ZM10.2614 3.25713C10.1038 2.86672 9.65958 2.67797 9.26917 2.83555C8.87876 2.99314 8.69001 3.43738 8.84755 3.8278L10.2614 3.25713ZM13.3552 6.76311C13.7659 6.67033 14.0235 6.26221 13.9308 5.85154C13.838 5.44086 13.4299 5.18315 13.0192 5.27593L13.3552 6.76311ZM0.762326 17H14.6875V15.4754H0.762326V17ZM8.84755 3.8278C9.08408 4.41364 9.56973 5.24883 10.2929 5.89191C11.0294 6.54688 12.0783 7.05157 13.3552 6.76311L13.0192 5.27593C12.3659 5.42352 11.8017 5.19333 11.3061 4.75258C10.7971 4.29993 10.4315 3.67858 10.2614 3.25713L8.84755 3.8278Z" fill="#3A3A3A"/>
</svg>
