<svg width="18" height="18" viewBox="0 0 18 18" fill="none" xmlns="http://www.w3.org/2000/svg">
<path d="M1.5 15.75H6C6.19891 15.75 6.38968 15.671 6.53033 15.5303C6.67098 15.3897 6.75 15.1989 6.75 15C6.75 14.8011 6.67098 14.6103 6.53033 14.4697C6.38968 14.329 6.19891 14.25 6 14.25H2.30325C2.48524 13.0011 3.11035 11.8594 4.06444 11.0332C5.01852 10.207 6.23793 9.75157 7.5 9.75C8.38311 9.75766 9.24106 9.45611 9.92518 8.89761C10.6093 8.33911 11.0765 7.55886 11.2457 6.69209C11.4149 5.82532 11.2756 4.92665 10.8518 4.15183C10.428 3.37701 9.74651 2.77488 8.92538 2.44978C8.10425 2.12469 7.19526 2.09712 6.35594 2.37186C5.51662 2.6466 4.79988 3.20633 4.32992 3.95404C3.85996 4.70175 3.66641 5.59033 3.78281 6.46576C3.89922 7.3412 4.31823 8.14832 4.96725 8.74725C3.72241 9.25225 2.65633 10.1168 1.90515 11.2305C1.15398 12.3443 0.751812 13.6566 0.75 15C0.75 15.1989 0.829018 15.3897 0.96967 15.5303C1.11032 15.671 1.30109 15.75 1.5 15.75ZM7.5 3.75C7.94501 3.75 8.38002 3.88196 8.75003 4.12919C9.12004 4.37643 9.40843 4.72783 9.57873 5.13896C9.74903 5.5501 9.79358 6.0025 9.70677 6.43895C9.61995 6.87541 9.40566 7.27632 9.09099 7.59099C8.77632 7.90566 8.37541 8.11995 7.93895 8.20677C7.5025 8.29358 7.0501 8.24903 6.63896 8.07873C6.22783 7.90843 5.87643 7.62005 5.62919 7.25003C5.38196 6.88002 5.25 6.44501 5.25 6C5.25 5.40326 5.48705 4.83097 5.90901 4.40901C6.33097 3.98705 6.90326 3.75 7.5 3.75ZM15.1553 6.96975C15.0146 6.82915 14.8239 6.75016 14.625 6.75016C14.4261 6.75016 14.2354 6.82915 14.0947 6.96975L9.40725 11.6573C9.3253 11.7398 9.26345 11.8402 9.2265 11.9505L8.289 14.763C8.25147 14.8757 8.24123 14.9957 8.25915 15.1131C8.27706 15.2305 8.3226 15.342 8.39202 15.4384C8.46145 15.5347 8.55277 15.6133 8.65847 15.6674C8.76417 15.7216 8.88122 15.7499 9 15.75C9.08053 15.7499 9.16052 15.737 9.237 15.7118L12.0495 14.7743C12.16 14.7374 12.2604 14.6752 12.3428 14.5928L17.0303 9.90525C17.1709 9.76461 17.2498 9.57387 17.2498 9.375C17.2498 9.17613 17.1709 8.9854 17.0303 8.84475L15.1553 6.96975ZM11.4052 13.407L10.1835 13.8143L10.5908 12.5925L14.625 8.5605L15.4395 9.375L11.4052 13.407Z" fill="#3A3A3A"/>
</svg>
