<svg width="18" height="18" viewBox="0 0 18 18" fill="none" xmlns="http://www.w3.org/2000/svg">
<g clip-path="url(#clip0_298_398)">
<path d="M6.75098 5.25C6.76006 3.61873 6.8324 2.73529 7.40868 2.15901C8.06771 1.5 9.12836 1.5 11.2497 1.5H11.9997C14.121 1.5 15.1817 1.5 15.8406 2.15901C16.4997 2.81802 16.4997 3.87868 16.4997 6V12C16.4997 14.1213 16.4997 15.1819 15.8406 15.841C15.1817 16.5 14.121 16.5 11.9997 16.5H11.2497C9.12836 16.5 8.06771 16.5 7.40868 15.841C6.8324 15.2647 6.76006 14.3812 6.75098 12.75" stroke="#333333" stroke-width="1.5" stroke-linecap="round"/>
<path d="M11.25 9H1.5M1.5 9L4.125 6.75M1.5 9L4.125 11.25" stroke="#333333" stroke-width="1.5" stroke-linecap="round" stroke-linejoin="round"/>
</g>
<defs>
<clipPath id="clip0_298_398">
<rect width="18" height="18" fill="white"/>
</clipPath>
</defs>
</svg>
