<svg width="18" height="18" viewBox="0 0 18 18" fill="none" xmlns="http://www.w3.org/2000/svg">
<path fill-rule="evenodd" clip-rule="evenodd" d="M13.7204 1.16498L15.6974 2.77399C15.8883 2.95999 15.9953 3.21564 15.9937 3.48214C15.9921 3.74865 15.8823 4.00306 15.6892 4.18684L14.1869 6.01642L9.07428 12.2543C8.98575 12.3586 8.86662 12.4321 8.73378 12.4647L6.08294 13.0745C5.73119 13.0891 5.42786 12.8297 5.3877 12.4799L5.5117 9.86463C5.52089 9.73107 5.57374 9.60432 5.66213 9.5038L10.5542 3.54242L12.2771 1.44043C12.6118 0.984805 13.2415 0.864652 13.7204 1.16498Z" stroke="#3A3A3A" stroke-width="1.5" stroke-linecap="round" stroke-linejoin="round"/>
<path d="M1.76233 15.4754C1.34131 15.4754 1 15.8167 1 16.2377C1 16.6588 1.34131 17 1.76233 17V15.4754ZM15.6875 17C16.1085 17 16.4498 16.6588 16.4498 16.2377C16.4498 15.8167 16.1085 15.4754 15.6875 15.4754V17ZM11.2614 3.25713C11.1038 2.86672 10.6596 2.67797 10.2692 2.83555C9.87876 2.99314 9.69001 3.43738 9.84755 3.8278L11.2614 3.25713ZM14.3552 6.76311C14.7659 6.67033 15.0235 6.26221 14.9308 5.85154C14.838 5.44086 14.4299 5.18315 14.0192 5.27593L14.3552 6.76311ZM1.76233 17H15.6875V15.4754H1.76233V17ZM9.84755 3.8278C10.0841 4.41364 10.5697 5.24883 11.2929 5.89191C12.0294 6.54688 13.0783 7.05157 14.3552 6.76311L14.0192 5.27593C13.3659 5.42352 12.8017 5.19333 12.3061 4.75258C11.7971 4.29993 11.4315 3.67858 11.2614 3.25713L9.84755 3.8278Z" fill="#3A3A3A"/>
</svg>
