<svg width="12" height="13" viewBox="0 0 12 13" fill="none" xmlns="http://www.w3.org/2000/svg">
<path fill-rule="evenodd" clip-rule="evenodd" d="M9.43087 1.35685L10.8313 2.49661C10.9665 2.62837 11.0423 2.80946 11.0411 2.99824C11.0401 3.18702 10.9622 3.36723 10.8255 3.49741L9.76135 4.79341L6.13975 9.21205C6.07703 9.28592 5.99265 9.33805 5.89855 9.36109L4.0208 9.79309C3.77164 9.80338 3.55677 9.61964 3.52832 9.37189L3.61616 7.51933C3.62267 7.42472 3.66011 7.33493 3.72272 7.26373L7.18807 3.04093L8.40847 1.55197C8.64556 1.22923 9.0916 1.14412 9.43087 1.35685Z" stroke="#F58633" stroke-width="1.5" stroke-linecap="round" stroke-linejoin="round"/>
<path d="M0.959922 11.4937C0.661691 11.4937 0.419922 11.7355 0.419922 12.0337C0.419922 12.332 0.661691 12.5737 0.959922 12.5737V11.4937ZM10.8239 12.5737C11.1221 12.5737 11.3639 12.332 11.3639 12.0337C11.3639 11.7355 11.1221 11.4937 10.8239 11.4937V12.5737ZM7.68868 2.83882C7.57701 2.56226 7.26237 2.42856 6.98582 2.54019C6.70927 2.65182 6.57556 2.9665 6.68716 3.24305L7.68868 2.83882ZM9.88022 5.32231C10.1711 5.25658 10.3536 4.96749 10.288 4.67659C10.2222 4.38568 9.93314 4.20313 9.64219 4.26885L9.88022 5.32231ZM0.959922 12.5737H10.8239V11.4937H0.959922V12.5737ZM6.68716 3.24305C6.85471 3.65804 7.19872 4.24966 7.711 4.70519C8.23271 5.16914 8.97568 5.52664 9.88022 5.32231L9.64219 4.26885C9.17944 4.3734 8.77977 4.21034 8.4287 3.89813C8.06812 3.57749 7.80914 3.13736 7.68868 2.83882L6.68716 3.24305Z" fill="#F58633"/>
</svg>
