<svg width="16" height="20" viewBox="0 0 16 20" fill="none" xmlns="http://www.w3.org/2000/svg">
<path d="M2 3.50323H14C14.8284 3.50323 15.5 4.17481 15.5 5.00323V18.0032C15.5 18.8317 14.8284 19.5032 14 19.5032H2C1.17157 19.5032 0.5 18.8317 0.5 18.0032V5.00323C0.5 4.17481 1.17157 3.50323 2 3.50323Z" fill="white" stroke="#3A3A3A"/>
<path d="M4.5 4.00325L4.5 4.00226C4.49945 3.72399 4.57633 3.45105 4.72202 3.21396C4.86772 2.97687 5.07649 2.78499 5.325 2.65977L5.52405 2.55946L5.5825 2.34438C5.72643 1.81477 6.04063 1.34724 6.47663 1.01392C6.91262 0.680593 7.44619 0.5 7.995 0.5C8.54382 0.5 9.07738 0.680593 9.51338 1.01392C9.94938 1.34724 10.2636 1.81477 10.4075 2.34438L10.4664 2.56108L10.6675 2.66102C10.9174 2.7852 11.1277 2.97663 11.2748 3.2138C11.4219 3.45096 11.4999 3.72445 11.5 4.00352C11.4999 4.13603 11.4473 4.2631 11.3536 4.3568C11.2598 4.45057 11.1326 4.50325 11 4.50325H5C4.8674 4.50325 4.74022 4.45057 4.64645 4.3568C4.55268 4.26304 4.5 4.13586 4.5 4.00325ZM8.5 11.0033V11.5033H9H10C10.1326 11.5033 10.2598 11.5559 10.3536 11.6497C10.4473 11.7435 10.5 11.8706 10.5 12.0033C10.5 12.1359 10.4473 12.263 10.3536 12.3568C10.2598 12.4506 10.1326 12.5033 10 12.5033H9H8.5V13.0033V14.0033C8.5 14.1359 8.44733 14.263 8.35356 14.3568C8.25979 14.4506 8.13261 14.5033 8 14.5033C7.86739 14.5033 7.74022 14.4506 7.64645 14.3568C7.55268 14.263 7.5 14.1359 7.5 14.0033V13.0033V12.5033H7H6C5.8674 12.5033 5.74022 12.4506 5.64645 12.3568C5.55268 12.263 5.5 12.1359 5.5 12.0033C5.5 11.8706 5.55268 11.7435 5.64645 11.6497C5.74022 11.5559 5.8674 11.5033 6 11.5033H7H7.5V11.0033V10.0033C7.5 9.87064 7.55268 9.74347 7.64645 9.6497C7.74022 9.55593 7.8674 9.50325 8 9.50325C8.13261 9.50325 8.25979 9.55593 8.35356 9.6497C8.44733 9.74347 8.5 9.87064 8.5 10.0033V11.0033Z" fill="#FAD77D" stroke="#3A3A3A"/>
</svg>
